<mxfile host="www.draw.io" modified="2019-12-05T19:57:41.071Z" agent="Mozilla/5.0 (X11; Ubuntu; Linux x86_64; rv:70.0) Gecko/20100101 Firefox/70.0" etag="lgPQsrg9J3DzD0S5l6Ox" version="12.3.7" type="github" pages="1">
  <diagram id="ODqqsy6rchGDzEYqWMNV" name="Page-1">
    <mxGraphModel dx="678" dy="776" grid="1" gridSize="10" guides="1" tooltips="1" connect="1" arrows="1" fold="1" page="1" pageScale="2" pageWidth="850" pageHeight="1100" math="0" shadow="0">
      <root>
        <mxCell id="0"/>
        <mxCell id="1" parent="0"/>
        <mxCell id="MvTisL7LCWPT0r3H7F93-110" value="" style="shape=image;verticalLabelPosition=bottom;labelBackgroundColor=#ffffff;verticalAlign=top;aspect=fixed;imageAspect=0;image=data:image/jpeg,/9j/4AAQSkZJRgABAQAAAQABAAD/2wCEAAkGBxMTEhUSEhIWFRUXGBgaGRcWGRgXGhYbFxcYFhcWHRkYHyggHh8lHRYVITMhJSkrLi4uGh8zOTMtNygtLisBCgoKDg0OGxAQGy0mICUuLS0tLS0tLS8rMi0tLS0rLS0yNy0tLS8uLS0tLS0tLS0tLSsvLS0tLS0tKy0tLS0tLf/AABEIAOEA4QMBIgACEQEDEQH/xAAcAAEAAgMBAQEAAAAAAAAAAAAABQYBAwQHAgj/xABIEAACAQIEAwYCCAMGAwYHAAABAgMAEQQSITEFE0EGIjJRYXFCgQcUM1JTcoKRI2KhFSQ0Q7HBFmN0NZOzwsPRJVRVc4Oisv/EABcBAQEBAQAAAAAAAAAAAAAAAAACAQP/xAAsEQACAgIBAgUCBgMAAAAAAAAAAQIRITESMkEDIlFhsYHwE0JSweHxcZHR/9oADAMBAAIRAxEAPwD3GlKUApSlAKUpQClKUApSlAKVycWxhhheULnKi4W+XMb2AudtTvXHgePxu4icNDMf8qUBWNt8hBKSD1QtbragJelYBrNAKUpQClKUApSlAKUpQClKUApSlAKUpQClKUApSlAKUpQClKUApSlAKUpQEd2giZsPIFBY2Gg1JswJsOugOlV7jGJjJfOqSYYhTl5ZYK4zFiyk73ymwCspuSdrSPaHiGKhIZI1aIC7MLsR55l0IH5QfWwqtcS4iuLaOSLFxwSAaxyZGinXUWMgGcDXS91uB3T1xptYCavJO4IS4fEwQCVnhmSY5JGMjRmIIVySt3ypzG4fMfI1aRUB/Z07YnDys0bJEkoJFwx5gQDu2sfCe8CL/dFT9aBSlKAUrjxPEUUst8zquYourBejWGoGh1Pka18O4ospYLrb4l7ye2a1sw6ruKAkKUpQClKUApSlAKUpQClKUApSlAKUpQClfLuACSQANyelVPFdtRI5i4dC2NkBsXQhMPGf55zoT6JmPtQFsdgASTYDcnpVZg7dYSTEx4WFmmLsU5sa5oVdUaTIZNicqtot9qiZeAPiGvxOc4phY/VMPdMMnXv6gvY9ZCPQV28Xw/Ll4WnLjjUYtsqRiyov1PEWGgAvvsAKAuNKVD8c4sYSqhdW+NzljT8zf7f1rUm3SJlJRVslZJABckADcnYVEtxhpDlwycz/AJh7sQ/Vu3sv71iLhAks+Ik53ULtEPKydfdr1MIoGg2rfKvcnzS9vkiY+D5zmxLmU/d8Ma+ydfdia+sd2cw8rZ2js3UoShYWtZihF9ABrt0qWpWOTZUYpaNWFw6RosaKFRFCqqiwUKLAAdABW2ubG42OJc0jhR69fQDcn0FR31rETfZJyk/ElHeP5Y+nu1vaii3kxzSwSONx0cS5pHCj16+gHU+gqOOLxE32KcpPxJR3j+WP/dre1dGC4OiNnN5JPxJDmb5dFHoAKkQK20tGVKW8EKOzGHLCSVOdKP8AMk1bqLaWAWxPdGmtTKRgAAAAAWAGgAHS1fVKluy0ksIUpWL0NM0rANZoBSlKAVgmsSHQ1QYHOLwiY3GyXhdOYYAeXh41JsBIAc0x11DkIbbCgLBP2mV2MeDjOKkBIJQhYUOos857osRYquZh92pHgOOM+GhnK5TLFHJlBvlzoGtewva+9qiOE4hcxLZEgjUZL9wIQxF8uiKNNNCfWu7sdGy4DCKylWXDwgqwIIIjUEEHUH0rE01aHeiYpSlaBSlKAoX0oRCSThsL3MUuMRZEucsi5T3WA3HoamuONHhMOzsyxYePKFjQctQCQoBK6nU6KoBOg1qJ+kf/ABPCf+uT/wDk1J9pOMYdonTNmCkZ3V1SOMqQbPO3cTpdRd7HQUegkm8kRJEMSY1KOI0lidEXMgY6tcohBIBAPfNuttLVKcYkGIxeCEH8TkYhnlK6rGPq80di/hzZpEGQHNre1qqnY/tIMfM0P1aZoFd1LQaYXKpsjPKxWSUsBfLtYjuHU1d+Icew2FyxKLtbuxQqDYC3sqAXHiI3FR4cXGNM2TTla0TtfEiAggi4PQ1y8O4nHMO4ddypFiOmx6XBFxpcGu2rMId+DlNcM5i/kPeiP6fh/SRWF4wUOXEpyjsH8UTfr+H2a1TNa3jBFiLjyNVyvqOfCunHwaMVj441zu6qp2N9/a2/sK4DisRN9knJT8SUd4+qx9P1ftXxN2eVX5uHIjcbBhmTXpl3X9JFbE4xyyFxKco7B75o2/X8Ps1qql+XJDk782F99zfg+Dxo2c3kk/EkOZvl0UegAqRAr5RwdQbjzr7qG29nWKSWBSlKwoUrF64MdxaOM5LlpDtGgzOfkNh6mwrUr0ZKSStneTVQ45xZ45ykys8R8Aw5Z2AAuTPEg5pF76pdbHValuRiJvG3IT7qG8hHq+y/p/eu/A8PjiFo0C+Z3LepY6k+9bSWyOUnpFRw3HIo057YiHDwscqKGjKsRoQEQkE33tYi2pFqnOyfHzjI2k5EsSg2UyrkEo6OgJvb389Ca6J+zmEeYYl8NE0w2kKKW97239dxUmalYR0Z9VgmovE8ZUNy4gZpBuqahfzP4V+Zv6VqHD5ZtcQ+VfwoiQPZn8TfKwquPrg58+0cmzGcYS5jiBmk+6moX8zHur8zf0qr8GEy8JhhODlYpEgZCMrlg1wFQsrGxAuSUHUE1d8PhURQqKFUbACw/pXJxrh7zR5Y5miN73AuG0Iytsba9CPntWOio8tsqnCOIvBEZOIRxnEDVY4SZWTQkjKoyI17juXJHVqnezXaFsUL8kqLXzC5Te2XMwFz7X2N7aX1cN7JRrrMeafukWjHpl1LdPESNLgCrGiAaCswtFH1SlKAUpSgI3jHA4MTy+fGJOU+dLlhZrFb2BF9CdDcVHdpHwKxphcRDHIGuY4CikEJuyqRYAXGo87dasdcnEeHRTpy5o1kW97ML2I2I8iOhGooCi43jzWWJAsKHSOKMG7AfCqqMz6a2QD2O9aouxU2IYSSHkBQQmbvvrfvCK/Lia/xd5ipIIHS88M4JBBcxRgMdC5JZ2A1ALsSxAvoL2FSArbMoq3CYkwVxJBlJ8WIUtJnte2dmu62udDcDparNDOrgMrBgdiDcH5ivsrUVNwUAl4GMLnfKLox/mj2PuLH1rcP2IqUff5JalQo4pJFpiY7D8WO7J7keJPncetSsM6uAykMDsQbg/tWOLRUZpm2ojtGoMaA6gzQg/8AeLX1iONLcpCpmcbhNl/M/hX/AF9K1pw6WUq2IkFgwYRR6KCpuMzHViCPQVUVxdsib5JxWQ/ByhzYZzEfuHvRN+n4fdbUTjBQ5cSnKOwfxRH9fw+zWqYtUF2m7T4TBr/eZACwNowMzuNtE8vU2HrWcr3n5N4V04+CcRwRcag7Hzrj4jxJIrKQzO3hRAWZrb6Dp6nSvHn7cSs0jYRDg4guYZu8Cc66lT3FuCRZf3qd4H9ICs6TY1RGFUxcxAxVi5VgxTVlHcPn57Vf4fcl+K6rvovHIxE3jbkJ91CDIfd9l9l/eu/BcPjiFo1C33PUnzJOp+dfeBxkcqCSJ1dG2ZSGB+Yrfeocm8FqCWTNYJqLxPGlDGOJTNJ1VNl/M57q/wCvpWocOlm1xEll/CiJA9mfxN7aCnH1M59o5NuK4yoYpEDNJ91NQv5m8K/6+lav7Plm1xEmVfwoiQP1P4m+VhUnhsKkahUUKo2AFhW6nJLQ4N9Rpw+GSNQqKFUbBRYVFYrtGl2SBTiHW4bIQI4yNxJMe4ltLrct/Ka4OL2xGOTCmQmMYeSR41YgM4liVeZlIYrZm7hNj1Brgn4pHCVaRxhsPBKVGiKriPMuREA8OxsgDaAai9S3nJaWMFm4BjJZEfnBA6yMp5ZYrawYWLanxWvYXtsNqlKovZPt1g5XmXO0eeYshlUorAhVFn8N7jYkH0q8g0NszSlKAUpSgFKUoBSlYNAZoa58XjUiXNI4UeZP9B5n0qNONnm+xTlp+LKNT+WPf5tb2rVFvJDmljudmN4okbLGe9I4YpGvjfLbMRcgAC66kgajXUVrTiwDBZQEYgkWbOLDzNha1xfSw8zUdj+HS5csqri498rhUkUjXMpFluOmxHnUSuGlGf6hLGZtP4eODl4rW1DDvNYXN2DEn4+la4vaCmtPDLHPxlSckKmZ/JLZV/M57o/19Kjf+G3cOzSCItvHDcR737wuM9+u1b+zHAZcPzHmxLzySkFhYJEhH4cY8N+pvr5Cp8mtU+PSS/DUuog8PjDhwEmhEaDZ4heP5qNU+dx612Y7jmHhi50syJH0YsLN6LbVj6C5rm45xhVw+KMMimWKGR9LHKQjFb9Nxsa8B4jg5czzTf3gXN3RrqjfEGUC6ajawHlelX7MRxp2j2jg/wBJOBxDlM7Ra2VplyJJts17DfZrH0qq/SvDE+LUyJn/AIEYFnyEZpJjdSe6ToNDoa81kxirazcwfdYHKPLff53+VaY+KSjTP3bAZTqoAJIUK1wFuxNtrmnGirslmwEmphbnafZyC0yfoJ73uhPsKg3nfKYzoM1yCLWIuLW6bnSpvh+I5ieG2XpqVXrcWOdBttcE1y9rJCRAxJJMbXYsGJtLIBdhvYADz0tVJsjbHZXjE+HxMXIlZS8kasqnuuGcAqynum40uRpe9fob+zpZf8Q9l/CiJC+zP4m/oK/MPCp8k8Ulr5JEew3ORg1vna1Xvj/b7G40MFkGGh25cbd9vQuBm/aw9DWZ7GtJ7PdsNh0RQqKqqNgoAH9K3Xr899nO0eIwjKkMrIpIHKmvIjljbRfh1O6Eeoq88O+kCDFSmGfEHCgG1gMiyHYgzHwi99O771nB7ZvNLCResbxiNGyC8kn4cYzN8+i+5tXOMLiJvtX5KfhxHvH80n+y/vXfw/BxRqBEqqp17vX1J6+5rqArOSWhxb6igdteGYzDFMRwuFSwikidVUM6q7o/NUMe+3ctbU67GvJMVxKMuZJ2kxE/xc7MCh+6VYd233QDb0r9NEVD8Z7K4PFMr4nDRyMuzEWP5SRbMv8AK1x6UUvUriux4PgOD4jiF1wqSSZj3n1jgU9Qzt4iPIZiOg6V7L9H/ZabARFJsU8xNrJry4rdEzXb/QabDWrRBAqKFRQqjQBQAAPIAbVsrGzUhSlKw0UpSgF6xeqfhe0H1h2ilZ8NIL/3WxSdgPiznxLa32N7H4zWMHjndmXCnKgWwN2kAa5GqPbTrmDi5OoPXG0sMZptFpxmNSJc0jhR5k/0HmfSo44yeb7FOWn4koNz6rHv82t7VG4HG4WPErBPKpxh2zyByfRNsv5cqk66HerWKvCOdSlvBG4Pg6K2d7ySffk1I9hsvyAqSArNef8ADuIcVUSYlOXjITPiF5BAhmjWKd4gI38LiyXswBv1rG29lKKjov8AauTH8OjlHfUEjZhoy+oYaioDAducPM3KjWT6z1w0i8uVbb5g2lhfcEipEcPlm1xEll/CiJA9mfxN8rCtSrN0TJp4qyqdou2MmBcwo6Si2kk5HcP3e4bykdRZfzVQuK9oppnDuzTsNVNxaM+axr3V9Dq3qanu36CLFzJGihMmHunLDoQFmPeXe3XMuoqoTcOjYXicwE9CxaFvZx3kPowPuK6812X1Of4f6nj0JXD9rZIcLIjWmE0ckF9FaMFCV1CjMQXN8wub76axkPEVeUvGxVrtb4HAJvo47pFraMNtL1BY2KSL+FJoB3gLgg5hbMCNCCBuD0rXw5s0yKoJJYdAf6HQ+xrJtMqK4poseMwccufMgWQI7ZktGTkRntJEdDfL4ktuL3qovL5Vc10Dg6WjmBFvCTDILFX70ZuQLi4JIHWqUy667X96k1E3wTEIsTMzgMGJAINzoPCy6g+4y0x7nEFAe4qKbM1hmu7PfQAHxWv1tfrWeBYKN4nLq9w6hShGZdHbwHx+EaAg+tdWJwkyqXXLiEA8QBun54jqvva3rWij54DhhF35FGksORycuXvHv3PQWBsdP9akZMLHKbspD/fjAjl2vdo/BJvfMmU+9V1cZ/CdGJJYoQdwAua/+tZ4dimDKl+6T4TcgdSQBqPdbGujkqSOfGVtpnVjeHyxETBllVWU5xfum/dDobMuo9vWoiae5JO5JP7m9W/FSj6vK0gLoBGNxreQDSQa6aHKR5b1WRwxZNcO+f8A5b2WQf8Alb5H5VnG15QpVmS/4foL6Ln/APhWFO3db5fxHqVl40GJXDoZmGhI0jX3k2+QuarX0c8Hz8Ow3PZyoVrQnuqLSP4huxv5/tV6iiCgKoAA2AFgPkK5OkdfM9YRE/XsRFrNGHT70NyV9Ch1I9R+1SGDx0cq5o3DD0O3oRuD6GujLUdjeDxu2dbxyfiR91vn0YehBrLT3gVKOsklSoUYqeH7ZOan4kQ7w/NH/uv7VIYLHRyrmjcMPTp6Ebg+ho4tZNU08HVSlKksUpSgOHi3CIMSnLniWRb3AYXKnoyndT6ixqqcY7I40qIcLxOSOFj3+YueZVtayzCzt+o3/mO1XmlAVns72HwmFbmhOZP1mlCl72C3UABU0HwgX63qzUqu9q+2WFwAHPcmRgSsSDM7AaX8gL6XJAoCw3qrdlx/c3bMylcRjWuu+mKn6ag+xBrzPiv0lzYtinMOEh6CPxv+abdP0gde9UdgHxmEJfB4glWuWjkOZJL7mx7pv56H1quJDkeoY6TA45IxikjkzW5UinLIGtmGQg5wwtfuEnTUCtGExOJwWLwmG+s/W8NimkVDMLzRcuMv9qv2g0t3hfXeq12f7a4RnRMVF9VkV0JLgvGchJVsx7yHqM1wPvVbO1Myvj+DsjBlMs5DKQQQcO2oI0NRFS/MW2r8pUvpNX++TG2gTDkkhiF7s+pZe8m24vVX9fPS9x3vTP4XHmGAPSrj27mX+0JkuM2XCsF+KwE4LC+lhcana/naoPjaRrM6hcm2qDQ3F+9G3dbf0rolg5yKl2tHfi0t/CTS2X4n+HpUTglYOhA3NlvsT5f1FWPtNwwl42LxpGIk75JtuzWVdWJsQbVHYDEwpIixJnJYAyS++uVNh7m5rpw7vBHPssnfLgJGJ+uMyZe6CxFvOy6m+/QW9a6ExOHV0jKo46u1rDQ/DsL+966pJjnkU2YX7yMC66E6tE3eQ7d9D5WqNx3CoyjSRZkyrmKk50IBAOR9wdR3WufWtXiJPCJcG8SZF4TG5FZAilWIJB12DAC+/wAR1Fj61O4XEZgsilgRsxJBB8hINQfRri3Wqm8vlVp7OoGhGoz3OxysRfa57rD0Nj5XqErZcm0iP7Wm0iHYtEpY2VSxJa7ELpc2GvXeozg4vPGLX7w0va/z6e9Tfanh0hKMqXCxKCAMrCxbUx7ga+XQ1F9nMK02KghTIGdwoLg2ufvZbNb2Na4tbCkpLBZuLwWwuIbX/KBzCzi8gIuw0caHvWBqjV6L2gw02FhePFYVwWKBL3kgezd4LItiDsQGAIIrmwH0cSzKszRzYeEnvB0zsotfMqAhyPzAeevXeMX0sm2sSR6V9HfD2fhuGmSV0lZWzG+dXs7AZlbfQAX0PrVj/tV4tMTHlH4sd2j+Y8SfMW9adk8JDDhYoYJOZHGCAxIJNyWN7AWNydLVLsK5uX6v5OigtxdfB8wTK4DKwZTsQQQfmK+6rU6wmZ0wkmXELq6RMuUX2MiHToematUvFCCy4qQxZQGzITEotu5J0Gt9GbKQNR0qZUtMqLk9otVRnEeEoxMi5kk+/H3WPoejezVy9n+KSSuRkZ4QLriGTlZze2UIdW015gVVOlr1PUTa0a0nspuA7QM6NzZsjp4oxHkmUE2Uyq4IW9j4VKkjRiKkf+IhDCJsVlij075IXf8AlOp/Tc+gqS4pweHEAc1Llb5XBKvGSLXSRSGQ2J1UioTCdhcOJmmnebFuSCoxL8xEA8IWMAJp0JBI96zvYSpUdP8Axzw3/wCoYX/vk/8AelTn1dfuj9hShptpSlAKhu0fZfC41MuJhV7eF9VdPyuveHtex61M0oDxPjP0XYnCEyYMjFJ+G+VJgPRtFb/9fY1RsRxIxOVRHhkB78bgrYno0bDQ+tga/UhqG7RdmMLjVy4mFXt4W1V1/K62YfvaqUjGj89YfFjEDk8maaYm6Il3I6XB1YL55rj2r0f6Nfo+xOHlTE4xlUR5zHAGLFHcZTISpyBspYWGa999KuHDMPg8EpgwUAL/ABLELsTteSQ/6sb13LgJpvt3yL+FESPk0m59hYVTvvg52u2Th7S4fB4n+DJD9YkGwj8cZ8+aCOX+4qo8R7D4qNA8YGIYXuruvNVfhCuUCuR/Nb38vTsLhEjUKihVHQC1b7UU+PSH4fLqPzT2gwM2KxSRQQTGVY0VkaMq4YXDFlOignXMTbXerBH9GEmGwzYvEyASIUKxp3tTIi95zpsdlHzr3bKKgu2+FeTAzJEhdyFIQWu2WRWIFyBewNS5tstRSR4visMys5IORWIzd5kBDHY25ie+qnpWmX7Oc9TC2p1J7yfEvdf1J1qajxwKYgKWSXPmMbZllXvKTmU2O2+lgPMa1GuQ0GJbKAwi1K90Nd0HeUaX9RbrVUQ9lDA11NvXX/arRweIrhkkdWRGLASMv8IkGxXmC4U+j296qpNfoP6GYg3CkVgCDJKCGFwRnOhBo3RSVnkXbORlnhKEhhBDYqdtDrcGp/sBwfGYieLEnDA8tg4na8QNuh0/i32uBp516lD9HnDllMowqXPwm5jB6sIycoPy9rVI/wBnyw/4eTMo/wAqUkj2V/EvsbitU+39ESj3r/Wz6i4wuYJOphcnTPqjH+V/CfY2PpUsCKgZ+PQ2MU0bCQ2BhKhi19rEd0j1vX1wPAyo+b7KG2kBbmW9cx8P5RcVjhi3gyPiZpZ/b/P39DrxfB0Zs6ExSffj0J/MNmHuK0fXZ4ftk5ifiRDUerR7j3W9TVYIqVLszo4d1gpfFex2DxmbEYaQwTtvPhzlJNw3fUaE3AudG03qW4b2YRSj4iSTFyoBaScghSOqRgBEOp7wGbzY12Yvg6M3MQmKT78ehP5hs3zFaPrs8P2ycxPxIhr7tHv81v7VtXozk11L6kyBWa58HjElXNG4YeYP9D5VvvUFpp6M0pShopSlAKUqvntZh3nOFgljknFwVzhQpBIILa3YEG6qGI623oCfJrVh8UkgzRurrci6kMLjcXHWqtx15hYyWZQwzBl/hleuVA1j0N5C22ijppxeJwcsT4iSQQC2VsTG/JvluMjk6PY6ZSG32FYpJuhTqyw4rjKBuXGDLJ9yPW35m8K/M1pGAmm/xEmRPwoiR8mk3PsLCo7sTxQzK6pAVgXLy5+WYFnve5ET94W072zX6VahV3Wjnxb6jRhcIkahY1CqOgFq6KVqxE6opd2CqNyTYDpvUnRKjbWL1HycYjUEveMWJGcFbgbm2432IB9K5vrk832KcpPxJR3j+WPf5tb2rUrJlNLBI4zGpEuaRgo8yd/QefyqO+tzzfYpykP+ZKNT6rHv82t7V0YPg6I3Ma8kn4kneI/KNlHoAKkQK20tE1KW8Fex3Y3Czr/eFaWT8VmIkW22Rltkt5LaqR2h7A4yOOVcKy4pJFy2ksk6jMD4tEk23ax969ZrF6cmUopYR5B2W+hy1pMdJ/8AiiP9Gk/2W3vXqnDOHRYeMRQRrGi3sqiw11J9SfM1rxvF44zluWc7RoMzn5Db3NhXLycTN425CfdQ3kI9X2X9P70pvLJ5JYWWdWO4tHGcpuznaNBmc/Ibe5sK5eTiJvG3IT7qG8h932X9P7134Hh0cQtGgW+56t6knUn3rqtS0tDi31HBFwaBUMYiUqfFcZi3qSdSfU1EYuYYWVIYsQudwSmGmbVgNyjHvKB63HlVnrg4xwaDFJy8REsi+TDUXFrqd1PqCDRSZr8NdiLl444cpltKNoMrMXHQhhsP5yuUdbb1PwMSoJUqSASpsSCRqCQSNPQ1o4dw2KBcsSBB1tu1ha7E6sbAakk111JYrBFYZwNToPM1EycZznLhkMp2z+GMe79fZb1qi3omUktmzGcJjJMikxSfiIQp/V0Ye9cvB+KyPIYzaVR/nxghfYg6X/KTW5ODmQ5sS5k/5Y7sQ/T8Xu16lUjAAAAAGwGgFU2qrZzUW3awfYpSlQdhSlKAVTO0f0b4TEvz41GHnzZuYiqys175pIXBR9dSbAnzq50oDzHhPCOPRO2FeXDzQEaTTDOFHogs5P8AI11Glm6VZ+Fdi4UdZsS74yddpJ7FU/8Atwr/AA4x7C/rVnpQGAKzSlAK+JYwwKsAQdCDqCPIivulAV/G9nWFzhZjAxAFyizBRfXIr+E20AByj7tSPBuGDDxiMSSSak5pXLsSxudTsPICwFd9cnE+Jw4eMyzypFGN2dgo9BrufSgOusXqlHt4zSw8rBTNhpZOWJ3HLLty3kXlRN3mXuHvNlFTghxE32jchD8CG8h932X2X96pRIcqwjqx3Fo4zkuWc7RoMzn5DYepsK5eTiJvG3IT7qEGQj1fZf0/vXfgeHxxC0ahb7nqx8yTqfnXUBTklozi31HLguHRxC0aAeZ3J9Sx1J966rVmlTstJLQqi8f7cT4bGyQrgnxEEUcbyvCbyJzM1myHcd09ehN6vVUvh2b+1+I5AC31fCWBJAJ/jWuRtWoE12b7VYTHLmw0yuR4k8MifmRrMOutrG2lTV6onHey+DxTh5FfBYv4Z4jy2J9HXuv89fauObivF+GgieIcRgG00QyzJ6yRjxD28tTQWeis9tSbComTjOc5cMhlO2fwxr7v19lvUL2b4jheIjP9aXEEamEXjEf5oj3j7tcHpVvjjAFgLDyFbhe5Hml7fJEpwcyHNiX5v/LHdiH6fi92JqWSMAWAsBsBoBX3SscmyoxSApSlYUKUpQClKUApSlAKUpQClKUArm4jj4oI2lmkWONfEzGwHTf3sK6apX0yf9k4j3h/8eOgPqTtJi8X/gIOVD/83iwUS33o4dHf3bKPeuD+zsLARi8VL9alBAGJxZAjRm2EMQGUXtoEW586tHGlCwNNlLtHGWVbi1wtxYOcl/U7VWOeWiGJxTRxrZGDSN3VaxuRIQCx1IsgF71MpU0vU1RbTfp90S3aGNhNw7O5cnG+QAH90xOgA6e5NWq1eO9p/pPhkxGG+rwvIuHn5mYnJzP4UkVlWxO0pNyAe7a3Wr/2c7a4XFkIjmOW1zDKMkg9gdGHqpNW0QmiyUrF6zWFClKUAqn8G/7Z4h/0+E/9arhUHxHgGaVsTBKYMQVCs4AdJFW+VZIz4gLnVSretARnaiTEriYOU8ZgbKssMqXVhn1dX6OAdjYaVvwWKsFMUmQHaOQ5kNreB9xuPeufH4x0ZTjYzDl058RMmHcAk2fTNF598ZRfxGoHjHDpYhC8EgROYWJUc6CQNkGvVL2NmFzvbeuU5NTj6Zsrw4OUZJbxX7kvxbsdhca5kaKTCYtNRPCcjAnS4de6+1j19q1fRdxvEzHGYfFSiZsLLy1lyhWcAut2A0+C/wA9b71eVrzj6Jv8Xxf/AKo/+JNXYjuelUpSsNFKUoBSlKAUpSgFKUoBSlKAUpSgFU36XombhOICqWN4jYAnQTRknToACSegBq5VqxWHWRGjdQysCrKdiGFiD6EEigPJu0P0r5xyMBBzCRbmSqSDprlj3PXVre1U2XAYjEvzcbM7t0W4JA62t3EG2ii3tV5499EpQmXhk5ib8GUlkPorm7D2YMPavMu031yJ+VjI2gPRSMqPYbhxdX89za/Tauka7HN2SUrRqVXDi5Um4jy22sCZjc3HkM1xcGovjs85K81hlBuuXQAjr5303/apTsn2f4jjFAw8eWL8aUZYwP5Ta7/pBHqK9T7M/RZhYCJcSTi5t80g/hqf5Y9R82zH2pypjiV/6JuOcVmdFdHmwet55hYrZTlyOSGk1AHxb7i1ev18qoGgr6qG7LSFYJrNDWGla4n2rVS6QKJGQsGYmyoymzKba3HrZbbsKxw3tWraTAIb+IXK6my3BGZSfKxAsbkVt492Qw+JJks0MxFudCcjm22b4XHo4PpaqhxPhOLw1zLF9YjH+dhls9tv4mHuT0ALRk6Dwi1aYW/tZHjZsPfhuIijkOoZ1Dhh5K2qjrqVb5V5JwjjmI4fiJl4iJsFJNIGRo4+ZhCbWYGEEhgx7xMZzXJ1FWDCdqFiXnRSs6m5cxK0iraxPNFsqtY6g98KPOrTw/tvh3EfPsA9isoRzFfoSxH8M77nSxuRShZ3Q9o2iVTjIuWhAIxEeZ4CDcgtcZ4dNTnGUXtnNVj6IZA2J4qykFTibgggggvMQQRuCK9HhdXUMpDKRcEEEEHqCNCK04DhkMJcwxJGXOZ8ihcxta5sNTQUddKUrDRSlKAUpSgFKUoBSlKAUpSgFKUoBSlKAVoxeDjlXJLGsi3ByuoYXGoNjpW+lAYVQNqzSlAKUpQClKUArBFZpQFc4/2MwuKJkKmKa320JyOfR/hkX+VwRUEnYrGOeXLjI1iBN5IYrTyAjw2cmKP3VW8gFFegUoKI/gPB4sJAmHgUrGl8oJLHvMXYktqSWYn51IUpQClKUApSlAKUpQClKUApSlAKUpQClKUApSlAKUpQClKUApSlAKUpQClKUApSlAKUpQClKUApSlAKUpQClKUB/9k=;" parent="1" vertex="1">
          <mxGeometry x="147" y="589" width="306" height="306" as="geometry"/>
        </mxCell>
        <mxCell id="MvTisL7LCWPT0r3H7F93-35" style="edgeStyle=orthogonalEdgeStyle;rounded=0;orthogonalLoop=1;jettySize=auto;html=1;exitX=1;exitY=0.5;exitDx=0;exitDy=0;" parent="1" source="MvTisL7LCWPT0r3H7F93-10" target="MvTisL7LCWPT0r3H7F93-32" edge="1">
          <mxGeometry relative="1" as="geometry"/>
        </mxCell>
        <mxCell id="MvTisL7LCWPT0r3H7F93-10" value="&lt;div&gt;Devices&lt;/div&gt;" style="whiteSpace=wrap;html=1;aspect=fixed;container=1;" parent="1" vertex="1">
          <mxGeometry x="60" y="323" width="156" height="130" as="geometry">
            <mxRectangle x="30" y="150" width="80" height="20" as="alternateBounds"/>
          </mxGeometry>
        </mxCell>
        <mxCell id="MvTisL7LCWPT0r3H7F93-11" value="" style="shape=image;html=1;verticalAlign=top;verticalLabelPosition=bottom;labelBackgroundColor=#ffffff;imageAspect=0;aspect=fixed;image=https://cdn4.iconfinder.com/data/icons/logos-and-brands-1/512/387_Xbox_logo-128.png" parent="MvTisL7LCWPT0r3H7F93-10" vertex="1">
          <mxGeometry y="84.52914798206275" width="45.37805436075775" height="45.37805436075775" as="geometry"/>
        </mxCell>
        <mxCell id="MvTisL7LCWPT0r3H7F93-12" value="" style="pointerEvents=1;shadow=0;dashed=0;html=1;strokeColor=none;fillColor=#505050;labelPosition=center;verticalLabelPosition=bottom;verticalAlign=top;outlineConnect=0;align=center;shape=mxgraph.office.devices.tv;" parent="MvTisL7LCWPT0r3H7F93-10" vertex="1">
          <mxGeometry x="61.11940298507462" y="87.44394618834082" width="38.417910447761194" height="40.80717488789238" as="geometry"/>
        </mxCell>
        <mxCell id="MvTisL7LCWPT0r3H7F93-13" value="" style="aspect=fixed;pointerEvents=1;shadow=0;dashed=0;html=1;strokeColor=none;labelPosition=center;verticalLabelPosition=bottom;verticalAlign=top;align=center;fillColor=#00188D;shape=mxgraph.mscae.enterprise.android_phone" parent="MvTisL7LCWPT0r3H7F93-10" vertex="1">
          <mxGeometry x="115.25373134328356" y="92.69058295964126" width="17.462686567164184" height="29.104477611940297" as="geometry"/>
        </mxCell>
        <mxCell id="MvTisL7LCWPT0r3H7F93-14" value="Client" style="shape=umlActor;verticalLabelPosition=bottom;labelBackgroundColor=#ffffff;verticalAlign=top;html=1;outlineConnect=0;" parent="MvTisL7LCWPT0r3H7F93-10" vertex="1">
          <mxGeometry x="9.533333333333333" y="17.333333333333336" width="26" height="46.8" as="geometry"/>
        </mxCell>
        <mxCell id="MvTisL7LCWPT0r3H7F93-19" value="" style="shape=image;html=1;verticalAlign=top;verticalLabelPosition=bottom;labelBackgroundColor=#ffffff;imageAspect=0;aspect=fixed;image=https://cdn2.iconfinder.com/data/icons/metro-ui-dock/128/Netflix.png" parent="1" vertex="1">
          <mxGeometry x="820" y="10" width="128" height="128" as="geometry"/>
        </mxCell>
        <mxCell id="MvTisL7LCWPT0r3H7F93-20" value="&lt;div&gt;&lt;b&gt;&lt;br&gt;&lt;/b&gt;&lt;/div&gt;&lt;div&gt;&lt;b&gt;Open Connect&lt;/b&gt;:&lt;/div&gt;&lt;div&gt;- Streaming&lt;/div&gt;&lt;div&gt;- Watching Features&lt;/div&gt;&lt;div&gt;- Caching, Latency Optim&lt;/div&gt;&lt;div&gt;=&lt;br&gt;&lt;/div&gt;&lt;div&gt;&amp;nbsp; &amp;nbsp; CDN: Content Delivery Network&lt;br&gt;&lt;/div&gt;" style="ellipse;shape=cloud;whiteSpace=wrap;html=1;container=1;" parent="1" vertex="1">
          <mxGeometry x="230" y="463" width="210" height="217" as="geometry">
            <mxRectangle x="174" y="380" width="110" height="60" as="alternateBounds"/>
          </mxGeometry>
        </mxCell>
        <mxCell id="MvTisL7LCWPT0r3H7F93-24" value="" style="shape=image;html=1;verticalAlign=top;verticalLabelPosition=bottom;labelBackgroundColor=#ffffff;imageAspect=0;aspect=fixed;image=https://cdn3.iconfinder.com/data/icons/logos-and-brands-adobe/512/227_Netflix-128.png" parent="MvTisL7LCWPT0r3H7F93-20" vertex="1">
          <mxGeometry x="73" y="30" width="43" height="43" as="geometry"/>
        </mxCell>
        <mxCell id="MvTisL7LCWPT0r3H7F93-25" value="&lt;div align=&quot;center&quot;&gt;&lt;b&gt;AWS&lt;/b&gt;:&lt;/div&gt;&lt;div align=&quot;center&quot;&gt;- Business logic&lt;/div&gt;&lt;div align=&quot;center&quot;&gt;- Client Data&lt;/div&gt;&lt;div align=&quot;center&quot;&gt;- Customer Transactions&lt;br&gt;&lt;/div&gt;" style="ellipse;shape=cloud;whiteSpace=wrap;html=1;container=1;align=center;" parent="1" vertex="1">
          <mxGeometry x="230" y="143" width="210" height="217" as="geometry">
            <mxRectangle x="230" y="153" width="110" height="60" as="alternateBounds"/>
          </mxGeometry>
        </mxCell>
        <mxCell id="MvTisL7LCWPT0r3H7F93-27" value="" style="shape=image;verticalLabelPosition=bottom;labelBackgroundColor=#ffffff;verticalAlign=top;aspect=fixed;imageAspect=0;image=data:image/png,iVBORw0KGgoAAAANSUhEUgAAASIAAACuCAMAAAClZfCTAAAAw1BMVEX///8lLz7/mQD/lwD/kgD/lAAAEin/kQAfKjoKGy8NHTAAFSsiLDzd3uAaJjcAFywVIjStr7MACCQXJDXq6+y2uLvExsnMzdCdoKUAACJma3T/3LiHi5EAByTz9PW+wMP/9+3X2NovOEZXXWdIT1r/796Ul52ipKlzeH/k5eb/wX//2LD/nxv/5cr/yI//s1s9RVH/r1L/7Nj/06X/qUFDS1ZwdX3/wHv/nxj/pTT/zJf/tmJ/g4phZ28AABxSWGL/4sNAIPdSAAAUP0lEQVR4nO1diVLqShAVCdmI7JuyRWRzAURQZHv6/1/1kkBgumcNF+Xq5VS9qleXZDJz0t3T28SLizOOhcJtsddd9W88vPVrlWzpqnHqKUVHodRb3Xw8x0wz1mqv+5Xi7ZEWcV9cta1c0rIz+VQqZXr/ZTJ2Wq+3bnq3x3nCd6CQvTFzaTufMp0AppnKWHqu9Vb5w0UUiv1Yzs6bMQaclK2n+mX+zffZPZoFlcc1ysXwhmJJ7Q3fN/cP4c6lkW3nrJTDWYS9zirNjvX0yitnYOIJeqzCWcvtf5a9Q/q6L39gN5nc35LOdeV3FLyl7x/yX4V9Uc2ymC85hGnn2ln5wzA84vWMcOCQJdtmz6ybAdfp7KsIFOtw5Lp82m3wDPOZdU1NhxNhs2RZCm+ERKGWtlX42cBqsfQZURRLyh7aQgLrxGR3lHS4zlfGJSlbcRW2KTAaGI1+XYF4cjHXjFdQSiMim+KnXuXwsLrMkt6kwPWpN+qKVU5oKOAq6pIZ7tG8zkciyEf6hhqmAV8xawEAPep12z3JTNETbKyZjWdVEdqgrmi2y/9FJsif3poaqI1UNS1+LhIJDymadzjTJLxeRyu8T6kbi80ipPZygzdqqmrDU1sWFgv9SvjcDK0SElKRtcOmqKC03ZCQvZMQz1EHDhnAanEl0wOAe50xpJjUDzjTDJSBRizyQsw7NYrwxqKM3D0aKQZHEr+jIsNsiEm9uIZXI0I/BNrAWeKfUOSYedu20mnLc9QyPG/SbKORasjsZ0SPXTFWlBL6m2W4ZTot8GslTY8XMzNWUq+nM2bGzuX0pIXWcihFKTtZj61XvWyzVCo1i9nu27P3EBZNOto0KXMq0hvWm3VM0USRKcrUyB/vr6nRTKve7hZvQ5veuL8tdm8cL4D4I4qcTDJ31ytTIUa5ayZpTUfvkd6UBZt4oU4NF6P3KABkNKEXdYen5+ivRVaoVGj208nUgRSZtt7qcj3O0istyckSvAZtjibtGOzQtFgUidzNBnQ1HaDGZeyHZloC37ncT9r+qlV3tA1FTkZ/rmD7C5FNYt3AbwGvW2CMsN3a3lDj34G89/yK/HGNhMiS+K2NbEvPmzmZr7qF7/GlrHxNvOH6uMpjjq6hYjTwnsOPKNiuhsMMTDdApKZJCS4gFc9LGPJRXrUFLwQg+19SvysqXXqF7DG1SyOLwDdGOFoJkeRnjZ7h+6mDNUAPQh4QR8QtbZ55yCJ7hK0NmirfGOHNbycbXAuCBAWaERTMWGpv/GuA9cOCP98jq8k1RuQGTg6Z4WZxkJ2DLCAPwuIN8h1oIjHC1gZpA9cYERpp3hA3mB+8J6+gKbomJb8hkrBvB/IhLWSMkHvHNUaEQtpN0oLZvAdDDxdSiaJDvih+C2oiF9eza+h9cnwz8jK9QPLKkztkiuA+gSybJNT7aiDvhPJPTShlHKEg8iaOA4IvntwVoSnKAW8DTerEFDVg4EDFIMhkcISC2IE8w9EghIC3CfbBnoUS+4iiEysalfFAP+PZsvN6zn4QX2yIfZIXyUJThEhAOQDztOYau/pp5FM1oEKwA0UynebLGWng2OkBlIBDF+FknrT48rXAmoRjc0Qhc7ZkOs23VqTPwzYkWcA8Vu8GckSldYKvRQVVFHHoCxcTS7Lc5RVK2ZDbFTutBnMIVLSLc176SZs0UIxBUYR2Z6YxIla0+Z34B2oDCOAADije+yiFya7TfheQlNCm4xVoGssYFYgwZbNaUntzjLQaNDZOHv9exNmn1POhnQ1HQFFGEdLEHD0EaXo2KkEOykqrQdGldZFOHJjp0zlHUorQ9sIwRkTmZ1siIDcsVloNRvJpmkRGMTDZjlCzPyqkFCHPieHHEWXb8FciWcdqZoD2DzsaHm6pBgFvIL19mqSInCLoFtCxO6kVYe6QlIIcxQCM/JgOOJXeD65Mp2on6KyTU4SCymvqd8IXDnMapLGh02qwFM70nK7oIpEPJ6+3ul/A0lWzV+uvP16f2x/r/qoLe0HlFF1IjBFhz3c7PGnAaNVcA0vDriTVeE0hTkZPrY5plkq115xu2ZmUGSCVymestK7bd6vs5mUoUASNK7ViQif2ppkYlVZNYGioIvAWgt4EJ59M90vs2yKi9JZLctorzLyVvH5eZe9RLZ5FEWSRWhKhh/sNnqQV+wm3QHN50cW9LmxOSKXrN8zaYxRkY7qkj8bJW7pChwyqFaFogLS9ezeRNDdJZDygp0V1W4QoMwu8JEtW7i77ByxlTeuQFhFmYA67XJAxItNp+2IOSRyWEzAcO0AJ0JR38ZlWbq3cvgdx36ZKrX9AEdyBkDEi02mEm0xsczjfUxeMBlC2FNrJzLTD64sWIasf2IfFpgjWipAvSCZCCNeOdGxgBgUmzIQ9o4VXZqsAgmNH7Sj2AmVObfRQilByApRYyViDNCsVbloNVFUcnOZE6NaV+hJtM5q6fUTrM1WgCNZJQPmd2BFBEpZ0OGHpCbSZwm4HBgo31yokOXqU7O1HtKZrFYrKQCxBYEqk00DbMZk5BKE8jOL5Fe0drm7qzI4xhHxMOV+y5jDkeF5jgLx/HCcaRReghwQYIyLIhZEEsW+BtgVYMJA01W5Q6KaSVBcLBVPaCr9Fl9kjaOtW625V61YqlW5tddNuZfS0nWEwxaEIpgEJY0Sm0/gmh4wxgNLK+t13KK9MXSZLDpUyZYKVRcjr7R4+3dYolLO1j5SOt1UORbBJgTBG5A+wKYKUFjKtBgIL2akJsLRuKyc+2WLGVHb/FjWGqa/45N4XUZqYQxGsSeT3xohIp6FqdoOdVoOmKGLe/r7SzokOXuUVbHaP8iPsD7H0iStaO9yRTBLGiMhs48w/IS5Eeh7II69HQIBCdk2JPjF9uVTaWF11WXPblRpFMNu8e/mkdOEsCWl09tYLJOgOq9Y3mm9Wms2S48huzmKPKC1t/1OkCArbzhgB7wcpDSkv+70ddCyxqiNqKL3VKXEIJiEjnWpLF7QBb6FIEbSyO9tC+NBUWqjASquBshwrra2MRi+WpkmStUVSp+ZsuTVUpQiEDTvbckdn9vcgXtiOP5B74jRRKKPo0D6gLvZFUclL6XwWzG/xKYIp+TBlTzwwTaUBSbNjM/5NdtJIASsqGhW1el/QZQNBS+8OqFGFP2vgZ279GZI3+mGkxISeLzh+wU8VKaOJOZIMii5XOhKhkLveALz/rWdEJJIYZfd7Oq0G0iqSF66GIuaIrklxpkRMS4yePHe9AYittm35RDqNtV5C8LbFMpApV42pxMCFW5wGBkA6w7AODKh51z7AC9ic1CViWFYoQcx+myghn0Z3OxyEAtqjhDEN7qdQsobokLDgnjUVXJFqw6qGkW7aZmCyaSYlSxUpAlblxO4odhyFp8FCoKqnIH8D2myCVFiRmdnfg3QogpkDU6Qk5ApApkK4jeM9X4UifHhD8A5ArSighLDg7OwhoflBWg28RF0+OyWodaxucAhFNexKCcQUNGP5xogIJtgnWW6ItJq/GZMFyKMdW0CenXCTqkQ7WB8AnwASvQPwCjxOQDqNmU8gdcCPx2w4wHGAdinhuNgWWXJlx99OEfoqIL7xNIufTgtBupaegQfBzvWxWjzRLiXMhlPnNKXxBz49KMmUks1YnjEi02mc2whSPfJJoeKfMYqKmqTnlwRSSoVZvFIZPNFRTTgZvUEk8Hkm7A6k1Ui34Xi91Oj8gXAXoGRCFqO9MYoljK66HcD2Z2elPfrQfOWA86n6lRgpSlAwRMfAL3ALoTTSf2NVg4WqDB5ARqS8IwgkqZkuEeUdr5Ma9SFJpJP6Po4wX7RmFm2F5VHeV234r4608GonQj2U79YVVSFboVVci2+k8rKC9PlVi1OS5J5DvGC0jIf3cF8d/ghSCJFD0silzEz9Tsn5rkW0vwWqh5L+KtEW3Ryv1iLK/nLPmnOja8qr2ECY1dm4CmYyJhWlxhoXVnUZsfQ7s1gq0OiZ/M4IoZX4YBPL30XwF9m2EKaKQgPmZHLtnmALb1RsrPhyE9ekj8vnU0gq/BILWTygzIso+0t/MC2YGF+6G4zqcIxzICkEYeP97570i8yvvZZXNj2ZujwFxfhEjmNltg9pFG6LtdckLNRZ2N5xW1h9sL51Jba9zMZXcaoIhtbBB0Cf+91i6apQaHgoXPm1divJ+EpJRiG/QqUpA6QsPWlZfjOxhT+mmqzBQqsPkRgxv7ElkgkcJ28mJP72E60LTsr/Lq6uJz3oeppaxgam0oczeDsIB+kVo1NCVN5iml9RZZ751R7GwRgxRWrIKVVU6KhLhGQgmNR5C4FvccsYX6SZVN40gMiFP5yiumKOrsi2j0xsv5RLVSj/E2y2jC+x5YWVDIZqSoIEJqtyXCtnV7qqcuTkwr2uDy2fLUp24TOZMVmTEOM7dLJuB45rIVlNhFalmhpHmdhug2yADoK00EHFH2KJybKbDI9clg69it4TnXEiVXa77INKAE6O3FSae9E2c5IsE30mU9y8gD/wo5KkuW+p9FuTq7mJmKBrSg9/WDG4T6/CKVmvsn5Bahe3JJkfyjNKKhiNXjLC+YyoXdc+GmtuCBYQRIedH4E5Mq/ljRKNOhzaFH4R00MJHXfJq5Xyey1p/+fm+Vb6sAaT8itHkvxzgSxr2U6mUslnlZbTq1YumQ6RzMnv6V37jusW6VxbVSduazFd8mVz/8ODhx+9Lr+l08gJDf4iwYoTxmTv1qq75n25FKKsktdplJvFEE2lxt8QV721F36wP/nqr6bV/cP+m1LtNaP7fzIg439hVtd/1t+1CHHb67csv008lTLN8A9ceOFI7CYbiW4u7svNbKXS6xV/5F9HCdG4KvW6/XX79bn1/Ny+63ezSuJ7xhlnnHHGGWecccYZZ5xxxhlnnHHGGWecERnuy+fj8GG2HPtYzh4W1YF76jn9Peg8PkzjmqYlEvEdEomE9w/z2aN76tmdHJ3JKK751Fyy4FFlPC3cU0/yhOgMn4wEmxyCpoQxPPVET4XHqZyfDf5NjtxFXFPjxxeky+CeYUIbv5x43t+HRUJRgLZi1PHuGRgeWcbSPfXcvwXVy0QEfjxoA/8uLZCoxOLU0/96uGMjigQFFFX9+7aambh8PPUSvhgvkVRsg0RASnVLbVx7+jzxIr4Wl4Ch0E8MwfaQEtXg1kFo4ePG9Bfb7U9jS4zvPmuJy3kQbUweA0yGs+VTQqPkTPvc3NzZERg3xp2TruML4cYNn5ilH4R1XOYlnckcOQSBuQ7uftr94G1uv5akFw4zJAZPgCNtT8Z4vxn+ZpJUAEyWQfwwMwhLpv3LJE0I12nrXYe/kD5D3Bj9YsMtRkcjeJiCnwbAnHu724Azxm8HSdEM/uQ+Ae/c85Oqp5njiUFQlJjgH0faJSTp8h8ISygQJGi0uVmgIMZzsx7c75/kSeGSUsT4fUC54Qlj/KuN0uCx6oJ/IMw1stZbuFMNceQbpYnLuvbnw11cagkN5hYHewISnKTjkM4YePq2/IVOwGC5DcoAR4RfpPH0h1a2QJTmlHX/0XAnT/t4jLQ5y/3q4/zbx5SyBaKkLX+NVfocgajecPc/ve/j1ZFghAk7A+55AcNfEJp0hjjDT0gRsaFpwiSjO2cJUlBbmv9s2+1O5lSJKEE40Z8ERa54KIbV3rE0/rHV3OqYUUJLzIkrHvZ6NpaN1plzqwWeWRr9QJaqI41hQOLGkrxony/SFOIvriD5A2s/iyW3OkowDWw8AZggHEeWa02hw7FIO1maTn6E9XYnY5b8BKIydcGle68IR/k8cLY2gqWnh7/cE3hZzOm0/U4XsLM33l1pqL59aXnOYym+/FtVzq3OLrn8eCI0xzTst3x2fMbGp7zI6zfjPHwec23HwGA4NzRO/xBbhC4uHndrDctDahgqtFJ4wmRMh3+Nzr341kdYfY1rY5e+b6dn8adoD3RHSsXwDU2fjCd/K14WQf+ZeK6JS9aWvtczlR0fYoBrcCKanmaPJ8oLuJ/DKaOmSs9Se2Dev9Oz+Jz5uxiP6n0nfqNgfDqsfqtD4A4WyyeJcoXzM0Yue5BpeLfxedAkFokozTm+OMWnD48vnNkcEe7nYlOQVxL0uDbnmUw3LCZG2c7gCA/qLXAhT97Mn5aeQLkHPlMyo8GmLViRnYAgQZPQIpQBZZ+IMaVZ5CamQO80TbsczyafR2PKfakuZvMNOVFmlKDLPgTC+CzBtlSqc1seQNKGKJ8pIz5fPkyqB2ufR83kYTnXjCiSs5tCQtyL97LVM1imPmSWMy1iwyCiyu/vMYz403j5sJhUB7J+DbfzMqhOFg/L8TxuGJtW+4MenIhLqoKz7bjGn7t37kO0tlMeV9tuKI8vz8a9z6fT8Xg8Gi19jLz/nc6f3i8Thk+Lxm0jU36aQtl06xRxHIKoJEVpXlZbAgdHGl17khcnHjcUHbybUZi8H5mkr0PcmKr4yhunKB53j0WRF99G79E9AfzCjZKv39kYa0YZ/0/QmR3DKH0lfBPkqi3mIdiEDnSrRXic/72i5Bci1Fcc2D3jS5rPX2bspPCpEUGAfASnGIwv66iqjpXCx29EXEvMonk3np7Fo6XRIsIVJIi/HR4/o8jiUDUMKk17bCidFPwefg5KpXe+JcfVGdLF4G+lx+Pnry017NBZTI3TWG9v/7qcfZ56/Wpwq0t57vjI9MQ1Y7r4WV1iL74wfQ9NPj3vDycvKhyEwXB+SFYnEj0JTXufoX7OH4bBYhz/Gpr8DF3iLyhJHQWdasT8spwcz5+fzx5/RMuFOjrV4ehJi5xrZpCjvY+Hp6rTfT38pPxyfrnNrqp/UGCX9x4NH/+Nz8K4L5+T4XL6ntikosnvvgAEH4HRDO1yOvp3P5nTefl8nCyGs+UoyFS/b6Tm/Wk+HY+Ws2GQ/XdPPckzZPgfxDqmtdvUKoEAAAAASUVORK5CYII=;direction=west;rotation=180;" parent="MvTisL7LCWPT0r3H7F93-25" vertex="1">
          <mxGeometry x="65" y="41.5" width="50" height="30" as="geometry"/>
        </mxCell>
        <mxCell id="MvTisL7LCWPT0r3H7F93-51" style="edgeStyle=orthogonalEdgeStyle;rounded=0;orthogonalLoop=1;jettySize=auto;html=1;" parent="1" source="MvTisL7LCWPT0r3H7F93-32" target="MvTisL7LCWPT0r3H7F93-36" edge="1">
          <mxGeometry relative="1" as="geometry"/>
        </mxCell>
        <mxCell id="MvTisL7LCWPT0r3H7F93-32" value="&lt;div&gt;&lt;b&gt;Load Balancer&lt;/b&gt; (AWS)&lt;/div&gt;&lt;div&gt;Round Robin Among Zones&lt;br&gt;&lt;/div&gt;" style="outlineConnect=0;dashed=0;verticalLabelPosition=bottom;verticalAlign=top;align=center;html=1;shape=mxgraph.aws3.hdfs_cluster;fillColor=#F58534;gradientColor=none;" parent="1" vertex="1">
          <mxGeometry x="300" y="360" width="70" height="56" as="geometry"/>
        </mxCell>
        <mxCell id="MvTisL7LCWPT0r3H7F93-36" value="Gateway, Traffic Routing" style="whiteSpace=wrap;html=1;aspect=fixed;container=1;" parent="1" vertex="1">
          <mxGeometry x="508" y="217" width="342" height="342" as="geometry">
            <mxRectangle x="508" y="217" width="160" height="20" as="alternateBounds"/>
          </mxGeometry>
        </mxCell>
        <mxCell id="MvTisL7LCWPT0r3H7F93-38" value="&lt;b&gt;ZUUL&lt;/b&gt;&lt;br&gt;&lt;div&gt;Gateway service that provides dynamic routing, monitoring, resiliency, security&lt;/div&gt;" style="rounded=1;whiteSpace=wrap;html=1;" parent="MvTisL7LCWPT0r3H7F93-36" vertex="1">
          <mxGeometry x="18.999999999999996" y="31.34999999999999" width="209" height="56.99999999999998" as="geometry"/>
        </mxCell>
        <mxCell id="MvTisL7LCWPT0r3H7F93-47" value="REQUEST" style="edgeStyle=orthogonalEdgeStyle;rounded=0;orthogonalLoop=1;jettySize=auto;html=1;entryX=0;entryY=0.5;entryDx=0;entryDy=0;" parent="MvTisL7LCWPT0r3H7F93-36" source="MvTisL7LCWPT0r3H7F93-39" target="MvTisL7LCWPT0r3H7F93-40" edge="1">
          <mxGeometry x="0.1549" y="-10" relative="1" as="geometry">
            <Array as="points">
              <mxPoint x="61.75" y="247"/>
            </Array>
            <mxPoint as="offset"/>
          </mxGeometry>
        </mxCell>
        <mxCell id="MvTisL7LCWPT0r3H7F93-39" value="Netty proxy" style="rounded=0;whiteSpace=wrap;html=1;" parent="MvTisL7LCWPT0r3H7F93-36" vertex="1">
          <mxGeometry x="18.999999999999996" y="151.99999999999997" width="85.49999999999999" height="30.4" as="geometry"/>
        </mxCell>
        <mxCell id="MvTisL7LCWPT0r3H7F93-48" style="edgeStyle=orthogonalEdgeStyle;rounded=0;orthogonalLoop=1;jettySize=auto;html=1;entryX=0.5;entryY=1;entryDx=0;entryDy=0;" parent="MvTisL7LCWPT0r3H7F93-36" source="MvTisL7LCWPT0r3H7F93-40" target="MvTisL7LCWPT0r3H7F93-45" edge="1">
          <mxGeometry relative="1" as="geometry"/>
        </mxCell>
        <mxCell id="MvTisL7LCWPT0r3H7F93-40" value="Inbound Filter" style="rounded=0;whiteSpace=wrap;html=1;" parent="MvTisL7LCWPT0r3H7F93-36" vertex="1">
          <mxGeometry x="199.49999999999997" y="231.79999999999993" width="85.49999999999999" height="30.4" as="geometry"/>
        </mxCell>
        <mxCell id="MvTisL7LCWPT0r3H7F93-50" value="RESPONSE" style="edgeStyle=orthogonalEdgeStyle;rounded=0;orthogonalLoop=1;jettySize=auto;html=1;exitX=0;exitY=0.5;exitDx=0;exitDy=0;" parent="MvTisL7LCWPT0r3H7F93-36" source="MvTisL7LCWPT0r3H7F93-46" target="MvTisL7LCWPT0r3H7F93-39" edge="1">
          <mxGeometry x="-0.0751" y="-12" relative="1" as="geometry">
            <mxPoint as="offset"/>
          </mxGeometry>
        </mxCell>
        <mxCell id="MvTisL7LCWPT0r3H7F93-46" value="Outbound Filter" style="rounded=0;whiteSpace=wrap;html=1;" parent="MvTisL7LCWPT0r3H7F93-36" vertex="1">
          <mxGeometry x="199.49999999999997" y="110.19999999999997" width="85.49999999999999" height="30.4" as="geometry"/>
        </mxCell>
        <mxCell id="MvTisL7LCWPT0r3H7F93-49" style="edgeStyle=orthogonalEdgeStyle;rounded=0;orthogonalLoop=1;jettySize=auto;html=1;entryX=0.5;entryY=1;entryDx=0;entryDy=0;" parent="MvTisL7LCWPT0r3H7F93-36" source="MvTisL7LCWPT0r3H7F93-45" target="MvTisL7LCWPT0r3H7F93-46" edge="1">
          <mxGeometry relative="1" as="geometry"/>
        </mxCell>
        <mxCell id="MvTisL7LCWPT0r3H7F93-45" value="Endpoint Filter" style="rounded=0;whiteSpace=wrap;html=1;" parent="MvTisL7LCWPT0r3H7F93-36" vertex="1">
          <mxGeometry x="199.49999999999997" y="170.99999999999997" width="85.49999999999999" height="30.4" as="geometry"/>
        </mxCell>
        <mxCell id="MvTisL7LCWPT0r3H7F93-75" value="&lt;div&gt;&lt;br&gt;&lt;/div&gt;" style="edgeStyle=orthogonalEdgeStyle;rounded=0;orthogonalLoop=1;jettySize=auto;html=1;exitX=1;exitY=0.5;exitDx=0;exitDy=0;entryX=0.5;entryY=0;entryDx=0;entryDy=0;" parent="1" source="MvTisL7LCWPT0r3H7F93-53" target="MvTisL7LCWPT0r3H7F93-70" edge="1">
          <mxGeometry x="1" y="136" relative="1" as="geometry">
            <mxPoint x="-76" y="122" as="offset"/>
          </mxGeometry>
        </mxCell>
        <mxCell id="MvTisL7LCWPT0r3H7F93-101" style="edgeStyle=orthogonalEdgeStyle;rounded=0;orthogonalLoop=1;jettySize=auto;html=1;exitX=0.5;exitY=0;exitDx=0;exitDy=0;" parent="1" source="MvTisL7LCWPT0r3H7F93-53" target="MvTisL7LCWPT0r3H7F93-59" edge="1">
          <mxGeometry relative="1" as="geometry"/>
        </mxCell>
        <mxCell id="MvTisL7LCWPT0r3H7F93-53" value="MicroServices" style="rounded=0;whiteSpace=wrap;html=1;container=1;" parent="1" vertex="1">
          <mxGeometry x="910" y="211" width="180" height="354" as="geometry">
            <mxRectangle x="910" y="211" width="110" height="69" as="alternateBounds"/>
          </mxGeometry>
        </mxCell>
        <mxCell id="MvTisL7LCWPT0r3H7F93-68" value="" style="aspect=fixed;perimeter=ellipsePerimeter;html=1;align=center;shadow=0;dashed=0;fontColor=#4277BB;labelBackgroundColor=#ffffff;fontSize=12;spacingTop=3;image;image=img/lib/ibm/applications/microservice.svg;" parent="MvTisL7LCWPT0r3H7F93-53" vertex="1">
          <mxGeometry x="56.5" y="289" width="81.09215017064847" height="59.59044368600683" as="geometry"/>
        </mxCell>
        <mxCell id="MvTisL7LCWPT0r3H7F93-54" value="&lt;div&gt;&lt;b&gt;Micro Services:&lt;/b&gt;&lt;/div&gt;&lt;div&gt;&lt;b&gt;SOA&lt;br&gt;&lt;/b&gt;&lt;/div&gt;" style="rounded=1;whiteSpace=wrap;html=1;" parent="MvTisL7LCWPT0r3H7F93-53" vertex="1">
          <mxGeometry x="18.34590212358581" y="11.925041179094736" width="78.6826436810244" height="59.68755361861296" as="geometry"/>
        </mxCell>
        <mxCell id="MvTisL7LCWPT0r3H7F93-55" value="&lt;b&gt;Hystrix&lt;/b&gt;" style="rounded=1;whiteSpace=wrap;html=1;" parent="MvTisL7LCWPT0r3H7F93-53" vertex="1">
          <mxGeometry x="18.34590212358581" y="82.0246645619574" width="78.6826436810244" height="59.68755361861296" as="geometry"/>
        </mxCell>
        <mxCell id="MvTisL7LCWPT0r3H7F93-57" value="&lt;div&gt;Service Client&lt;/div&gt;" style="rounded=1;whiteSpace=wrap;html=1;" parent="MvTisL7LCWPT0r3H7F93-53" vertex="1">
          <mxGeometry x="18.34590212358581" y="152.6258407398511" width="78.6826436810244" height="59.68755361861296" as="geometry"/>
        </mxCell>
        <mxCell id="MvTisL7LCWPT0r3H7F93-58" value="EV Cache" style="rounded=1;whiteSpace=wrap;html=1;" parent="MvTisL7LCWPT0r3H7F93-53" vertex="1">
          <mxGeometry x="18.34590212358581" y="222.67558594420237" width="78.6826436810244" height="59.68755361861296" as="geometry"/>
        </mxCell>
        <mxCell id="MvTisL7LCWPT0r3H7F93-59" value="Databases" style="rounded=0;whiteSpace=wrap;html=1;container=1;" parent="1" vertex="1">
          <mxGeometry x="1230" y="120" width="350" height="240" as="geometry">
            <mxRectangle x="1230" y="120" width="70" height="40" as="alternateBounds"/>
          </mxGeometry>
        </mxCell>
        <mxCell id="MvTisL7LCWPT0r3H7F93-61" value="&lt;b&gt;DATABASES&lt;/b&gt;" style="rounded=1;whiteSpace=wrap;html=1;" parent="MvTisL7LCWPT0r3H7F93-59" vertex="1">
          <mxGeometry x="20" y="14" width="90" height="26" as="geometry"/>
        </mxCell>
        <mxCell id="MvTisL7LCWPT0r3H7F93-62" value="&lt;b&gt;CASSANDRA&lt;/b&gt;" style="shape=cylinder;whiteSpace=wrap;html=1;boundedLbl=1;backgroundOutline=1;" parent="MvTisL7LCWPT0r3H7F93-59" vertex="1">
          <mxGeometry x="50" y="80" width="60" height="80" as="geometry"/>
        </mxCell>
        <mxCell id="MvTisL7LCWPT0r3H7F93-63" value="&lt;b&gt;MySQL&lt;/b&gt;" style="shape=cylinder;whiteSpace=wrap;html=1;boundedLbl=1;backgroundOutline=1;" parent="MvTisL7LCWPT0r3H7F93-59" vertex="1">
          <mxGeometry x="250" y="80" width="60" height="80" as="geometry"/>
        </mxCell>
        <mxCell id="MvTisL7LCWPT0r3H7F93-66" value="&lt;div&gt;&lt;b&gt;HDFS&lt;/b&gt;:&lt;/div&gt;&lt;div&gt;- Scalability&lt;/div&gt;&lt;div&gt;- Distributed&lt;br&gt;&lt;/div&gt;" style="text;html=1;strokeColor=none;fillColor=none;align=center;verticalAlign=middle;whiteSpace=wrap;rounded=0;" parent="MvTisL7LCWPT0r3H7F93-59" vertex="1">
          <mxGeometry x="32.5" y="180" width="95" height="30" as="geometry"/>
        </mxCell>
        <mxCell id="MvTisL7LCWPT0r3H7F93-67" value="&lt;div&gt;&lt;b&gt;SQL&lt;/b&gt;:&lt;/div&gt;&lt;div&gt;- Relational&lt;/div&gt;&lt;div&gt;- Non distributed&lt;br&gt;&lt;/div&gt;" style="text;html=1;strokeColor=none;fillColor=none;align=center;verticalAlign=middle;whiteSpace=wrap;rounded=0;" parent="MvTisL7LCWPT0r3H7F93-59" vertex="1">
          <mxGeometry x="232.5" y="180" width="95" height="30" as="geometry"/>
        </mxCell>
        <mxCell id="MvTisL7LCWPT0r3H7F93-70" value="Event Processing, Log Monitor" style="rounded=0;whiteSpace=wrap;html=1;container=1;" parent="1" vertex="1">
          <mxGeometry x="1220" y="408" width="370" height="252" as="geometry">
            <mxRectangle x="1220" y="408" width="120" height="60" as="alternateBounds"/>
          </mxGeometry>
        </mxCell>
        <mxCell id="MvTisL7LCWPT0r3H7F93-85" style="edgeStyle=orthogonalEdgeStyle;rounded=0;orthogonalLoop=1;jettySize=auto;html=1;exitX=0.5;exitY=1;exitDx=0;exitDy=0;entryX=0.5;entryY=0;entryDx=0;entryDy=0;" parent="MvTisL7LCWPT0r3H7F93-70" source="MvTisL7LCWPT0r3H7F93-71" target="MvTisL7LCWPT0r3H7F93-72" edge="1">
          <mxGeometry relative="1" as="geometry"/>
        </mxCell>
        <mxCell id="MvTisL7LCWPT0r3H7F93-71" value="&lt;b&gt;Event Processing, Log monitor&lt;/b&gt;" style="rounded=1;whiteSpace=wrap;html=1;" parent="MvTisL7LCWPT0r3H7F93-70" vertex="1">
          <mxGeometry x="23" y="11" width="120" height="60" as="geometry"/>
        </mxCell>
        <mxCell id="MvTisL7LCWPT0r3H7F93-74" value="EMR: Hadoop Framework" style="rounded=1;whiteSpace=wrap;html=1;" parent="MvTisL7LCWPT0r3H7F93-70" vertex="1">
          <mxGeometry x="15" y="181.5" width="95" height="42" as="geometry"/>
        </mxCell>
        <mxCell id="MvTisL7LCWPT0r3H7F93-84" style="edgeStyle=orthogonalEdgeStyle;rounded=0;orthogonalLoop=1;jettySize=auto;html=1;exitX=0.5;exitY=1;exitDx=0;exitDy=0;entryX=0.5;entryY=0;entryDx=0;entryDy=0;" parent="MvTisL7LCWPT0r3H7F93-70" source="MvTisL7LCWPT0r3H7F93-73" target="MvTisL7LCWPT0r3H7F93-74" edge="1">
          <mxGeometry relative="1" as="geometry"/>
        </mxCell>
        <mxCell id="MvTisL7LCWPT0r3H7F93-73" value="Amazon S3" style="rounded=1;whiteSpace=wrap;html=1;" parent="MvTisL7LCWPT0r3H7F93-70" vertex="1">
          <mxGeometry x="15" y="140" width="95" height="30" as="geometry"/>
        </mxCell>
        <mxCell id="MvTisL7LCWPT0r3H7F93-80" style="edgeStyle=orthogonalEdgeStyle;rounded=0;orthogonalLoop=1;jettySize=auto;html=1;exitX=1;exitY=0.5;exitDx=0;exitDy=0;entryX=0;entryY=0.5;entryDx=0;entryDy=0;" parent="MvTisL7LCWPT0r3H7F93-70" source="MvTisL7LCWPT0r3H7F93-72" target="MvTisL7LCWPT0r3H7F93-76" edge="1">
          <mxGeometry relative="1" as="geometry"/>
        </mxCell>
        <mxCell id="MvTisL7LCWPT0r3H7F93-83" style="edgeStyle=orthogonalEdgeStyle;rounded=0;orthogonalLoop=1;jettySize=auto;html=1;exitX=0.5;exitY=1;exitDx=0;exitDy=0;entryX=0.5;entryY=0;entryDx=0;entryDy=0;" parent="MvTisL7LCWPT0r3H7F93-70" source="MvTisL7LCWPT0r3H7F93-72" target="MvTisL7LCWPT0r3H7F93-73" edge="1">
          <mxGeometry relative="1" as="geometry"/>
        </mxCell>
        <mxCell id="MvTisL7LCWPT0r3H7F93-72" value="&lt;div&gt;Chukwa&lt;/div&gt;" style="rounded=1;whiteSpace=wrap;html=1;arcSize=50;" parent="MvTisL7LCWPT0r3H7F93-70" vertex="1">
          <mxGeometry x="15" y="91.5" width="98" height="26" as="geometry"/>
        </mxCell>
        <mxCell id="MvTisL7LCWPT0r3H7F93-81" style="edgeStyle=orthogonalEdgeStyle;rounded=0;orthogonalLoop=1;jettySize=auto;html=1;exitX=0.5;exitY=1;exitDx=0;exitDy=0;entryX=0.5;entryY=0;entryDx=0;entryDy=0;" parent="MvTisL7LCWPT0r3H7F93-70" source="MvTisL7LCWPT0r3H7F93-76" target="MvTisL7LCWPT0r3H7F93-77" edge="1">
          <mxGeometry relative="1" as="geometry"/>
        </mxCell>
        <mxCell id="MvTisL7LCWPT0r3H7F93-76" value="&lt;div&gt;Kafka&lt;/div&gt;" style="rounded=1;whiteSpace=wrap;html=1;arcSize=50;" parent="MvTisL7LCWPT0r3H7F93-70" vertex="1">
          <mxGeometry x="269" y="91.5" width="98" height="26" as="geometry"/>
        </mxCell>
        <mxCell id="MvTisL7LCWPT0r3H7F93-78" value="Spark" style="rounded=1;whiteSpace=wrap;html=1;arcSize=50;" parent="MvTisL7LCWPT0r3H7F93-70" vertex="1">
          <mxGeometry x="269" y="189.5" width="98" height="26" as="geometry"/>
        </mxCell>
        <mxCell id="MvTisL7LCWPT0r3H7F93-82" style="edgeStyle=orthogonalEdgeStyle;rounded=0;orthogonalLoop=1;jettySize=auto;html=1;exitX=0.5;exitY=1;exitDx=0;exitDy=0;entryX=0.5;entryY=0;entryDx=0;entryDy=0;" parent="MvTisL7LCWPT0r3H7F93-70" source="MvTisL7LCWPT0r3H7F93-77" target="MvTisL7LCWPT0r3H7F93-78" edge="1">
          <mxGeometry relative="1" as="geometry"/>
        </mxCell>
        <mxCell id="MvTisL7LCWPT0r3H7F93-77" value="ElasticSearch" style="rounded=1;whiteSpace=wrap;html=1;arcSize=50;" parent="MvTisL7LCWPT0r3H7F93-70" vertex="1">
          <mxGeometry x="269" y="140" width="98" height="26" as="geometry"/>
        </mxCell>
        <mxCell id="MvTisL7LCWPT0r3H7F93-86" value="Video Access and Queuing Serving" style="rounded=0;whiteSpace=wrap;html=1;container=1;" parent="1" vertex="1">
          <mxGeometry x="1210" y="690" width="370" height="252" as="geometry">
            <mxRectangle x="1210" y="690" width="120" height="60" as="alternateBounds"/>
          </mxGeometry>
        </mxCell>
        <mxCell id="MvTisL7LCWPT0r3H7F93-87" style="edgeStyle=orthogonalEdgeStyle;rounded=0;orthogonalLoop=1;jettySize=auto;html=1;exitX=0.5;exitY=1;exitDx=0;exitDy=0;entryX=0.5;entryY=0;entryDx=0;entryDy=0;" parent="MvTisL7LCWPT0r3H7F93-86" source="MvTisL7LCWPT0r3H7F93-88" target="MvTisL7LCWPT0r3H7F93-94" edge="1">
          <mxGeometry relative="1" as="geometry"/>
        </mxCell>
        <mxCell id="MvTisL7LCWPT0r3H7F93-88" value="&lt;b&gt;Watching Service&lt;br&gt;&lt;/b&gt;" style="rounded=1;whiteSpace=wrap;html=1;" parent="MvTisL7LCWPT0r3H7F93-86" vertex="1">
          <mxGeometry x="7.5" y="10" width="120" height="60" as="geometry"/>
        </mxCell>
        <mxCell id="fre4_qvxFho-2-rtzuF5-14" style="edgeStyle=orthogonalEdgeStyle;rounded=0;orthogonalLoop=1;jettySize=auto;html=1;exitX=1;exitY=0.5;exitDx=0;exitDy=0;entryX=0;entryY=0.5;entryDx=0;entryDy=0;" parent="MvTisL7LCWPT0r3H7F93-86" source="MvTisL7LCWPT0r3H7F93-89" target="fre4_qvxFho-2-rtzuF5-13" edge="1">
          <mxGeometry relative="1" as="geometry"/>
        </mxCell>
        <mxCell id="MvTisL7LCWPT0r3H7F93-89" value="Transcoder" style="rounded=1;whiteSpace=wrap;html=1;" parent="MvTisL7LCWPT0r3H7F93-86" vertex="1">
          <mxGeometry x="20" y="200" width="95" height="42" as="geometry"/>
        </mxCell>
        <mxCell id="MvTisL7LCWPT0r3H7F93-90" style="edgeStyle=orthogonalEdgeStyle;rounded=0;orthogonalLoop=1;jettySize=auto;html=1;exitX=0.5;exitY=1;exitDx=0;exitDy=0;entryX=0.5;entryY=0;entryDx=0;entryDy=0;" parent="MvTisL7LCWPT0r3H7F93-86" source="MvTisL7LCWPT0r3H7F93-91" target="MvTisL7LCWPT0r3H7F93-89" edge="1">
          <mxGeometry relative="1" as="geometry"/>
        </mxCell>
        <mxCell id="MvTisL7LCWPT0r3H7F93-91" value="Queue" style="rounded=1;whiteSpace=wrap;html=1;" parent="MvTisL7LCWPT0r3H7F93-86" vertex="1">
          <mxGeometry x="20" y="150.5" width="95" height="30" as="geometry"/>
        </mxCell>
        <mxCell id="MvTisL7LCWPT0r3H7F93-93" style="edgeStyle=orthogonalEdgeStyle;rounded=0;orthogonalLoop=1;jettySize=auto;html=1;exitX=0.5;exitY=1;exitDx=0;exitDy=0;entryX=0.5;entryY=0;entryDx=0;entryDy=0;" parent="MvTisL7LCWPT0r3H7F93-86" source="MvTisL7LCWPT0r3H7F93-94" target="MvTisL7LCWPT0r3H7F93-91" edge="1">
          <mxGeometry relative="1" as="geometry"/>
        </mxCell>
        <mxCell id="MvTisL7LCWPT0r3H7F93-94" value="Video Validation &lt;b&gt;Transcoding&lt;/b&gt;" style="rounded=1;whiteSpace=wrap;html=1;arcSize=50;" parent="MvTisL7LCWPT0r3H7F93-86" vertex="1">
          <mxGeometry x="15" y="92" width="105" height="39" as="geometry"/>
        </mxCell>
        <mxCell id="fre4_qvxFho-2-rtzuF5-13" value="Amazon S3" style="rounded=0;whiteSpace=wrap;html=1;" parent="MvTisL7LCWPT0r3H7F93-86" vertex="1">
          <mxGeometry x="185" y="195.5" width="110" height="51" as="geometry"/>
        </mxCell>
        <mxCell id="MvTisL7LCWPT0r3H7F93-105" value="&lt;font style=&quot;font-size: 24px&quot;&gt;Network&lt;/font&gt;" style="text;html=1;strokeColor=#FDFFFA;fillColor=#FF3333;align=center;verticalAlign=middle;whiteSpace=wrap;rounded=0;shadow=0;" parent="1" vertex="1">
          <mxGeometry x="689" y="186" width="161" height="54" as="geometry"/>
        </mxCell>
        <mxCell id="MvTisL7LCWPT0r3H7F93-106" value="&lt;font style=&quot;font-size: 24px&quot;&gt;Micro Services&lt;/font&gt;" style="text;html=1;strokeColor=#FDFFFA;fillColor=#FF3333;align=center;verticalAlign=middle;whiteSpace=wrap;rounded=0;shadow=0;" parent="1" vertex="1">
          <mxGeometry x="1030" y="251.5" width="141" height="83" as="geometry"/>
        </mxCell>
        <mxCell id="MvTisL7LCWPT0r3H7F93-107" value="&lt;font style=&quot;font-size: 24px&quot;&gt;Databases&lt;/font&gt;" style="text;html=1;strokeColor=#FDFFFA;fillColor=#FF3333;align=center;verticalAlign=middle;whiteSpace=wrap;rounded=0;shadow=0;" parent="1" vertex="1">
          <mxGeometry x="1405" y="103" width="221" height="40" as="geometry"/>
        </mxCell>
        <mxCell id="MvTisL7LCWPT0r3H7F93-108" value="&lt;font style=&quot;font-size: 24px&quot;&gt;Event Processing, Log Monitoring&lt;/font&gt;" style="text;html=1;strokeColor=#FDFFFA;fillColor=#FF3333;align=center;verticalAlign=middle;whiteSpace=wrap;rounded=0;shadow=0;" parent="1" vertex="1">
          <mxGeometry x="1430" y="388" width="200" height="62" as="geometry"/>
        </mxCell>
        <mxCell id="MvTisL7LCWPT0r3H7F93-109" value="&lt;font style=&quot;font-size: 24px&quot;&gt;Watching Service&lt;/font&gt;" style="text;html=1;strokeColor=#FDFFFA;fillColor=#FF3333;align=center;verticalAlign=middle;whiteSpace=wrap;rounded=0;shadow=0;" parent="1" vertex="1">
          <mxGeometry x="1440" y="680" width="200" height="62" as="geometry"/>
        </mxCell>
        <mxCell id="MvTisL7LCWPT0r3H7F93-113" value="" style="edgeStyle=orthogonalEdgeStyle;rounded=0;orthogonalLoop=1;jettySize=auto;html=1;" parent="1" source="MvTisL7LCWPT0r3H7F93-111" target="MvTisL7LCWPT0r3H7F93-10" edge="1">
          <mxGeometry relative="1" as="geometry"/>
        </mxCell>
        <mxCell id="MvTisL7LCWPT0r3H7F93-111" value="- Responsive&#xa;- Runtime performance&#xa;- Modularity&#xa;" style="shape=image;verticalLabelPosition=bottom;labelBackgroundColor=#ffffff;verticalAlign=top;aspect=fixed;imageAspect=0;image=data:image/png,iVBORw0KGgoAAAANSUhEUgAAAVMAAACVCAMAAADSU+lbAAABOFBMVEX///9Twd4AAABMv91DvdxJvt1AvNx9fX31+/2Bz+XD5/LCwsL5/f7u+Puz4e/h8/hkxuG75PCW1umeinfT7fWVg3em3Ox7zeR7i5/N6/SQ1OhyyuPo9vqb2Oqs3u3S7fXA0NZxipGyqZeQnKr69eb//vhCQkIRAACXl5f+9++0wM/PwrgYAABkZGR0cnOssrPe4uPHw71ybGcmJRkKDhJdY2qGkZs0QkrQ2+Dg7fnl3dQ1KB4oMjkeDwBNNRynpqccIyUkIyDt49bQ0NE4KxkTKTcAABBDOS2FdmmZqrdYRzbBsqQiPVI4JAJcboBfUkV+ZlRPTkamlIQ+TVtyVTdmeIuvushJUFOampksM0BsWUU0T2YAFC8ZLkBYQy19b2UrDQBIJwCAh4lQY24dN1EpFQAAAB9NNhW0r29ZAAAO5klEQVR4nO1dC3ecxhVedgbEImBhQ3a7sKxSt3JWVSTZju04bhLHVuw83DZJkzpxHk2rtOn//wdl5s4TGJAs2ccS852TGMEAy8ed+5o7w2hkYWFh8WKYridFUkzKYHXqU7L5JEEYJeXOS/xdlxdZ4SEAxs78NLRmuYsRcipU5zjLl/4LLx1Kj7LDgHDRx1GaYPUMx8tfye+8RJhgpwacdLGaOs0TJq/s114KzIEh2vWlrCZTQ/NMMoqQ67JT8PqV/ubXHFOPdfhyPc8TzElCXh62tA6FUFeqt5in6XoBagCf3rhdfSSEEpQwSqK04MoVtZieJRKUT5aM8xXsWLzC3/yaI8OUUmXPKues4rrpyTGX0TKSe0OwUyZlMTxMCH9Y5yPirCJH7dFR4jJGc19rD+/F2n6GkNLRsNrThBkuHIh9mcudgoZEFrTtS/6plwZLwh3OmgdijzE4ZztSjynSFgtvvMogMaOdvO1IxESVuZ4lUOombfY9pHZu3nJkiCBW36QJ50wyiQFj1qlhtRgW5KC1/AAiYG5sOLgDridK/AXoUi81tJwjq1A5IqoIjYmlyAFSGbfI6C4F5DpeW5AwPExxTwhUuCKmR05kbNZ7nQFhh3Lhd7SQsWjSIYaRNfwC4AR1NilZUNVpgaibi20alSDo5zRnIVXR2YpGY0Fnk6Ggn9NS9P1OUqn/YDkl6O37sUw/u115Z8upAHBqNj70uMOS1bgjULJ9XyDrtvtTkNIEslcdpFkbJdHtV4bMPFWcF0Cqyen3rS8l0O1XJsqoCERUjkFNwLuxWWmC0O3o0jmNoTzo0ZHbZfz7Y4cBgRLVPuaZUmWKeYIl8zrsVOr2+rnDAcnQt+f6YDzVlcfWlGOvNeFCg62k7cgAQXLSqJUMh5l8CTD+qK2Hk0PNEZiBwthp2whMjCrVsXl+icxgsANw9tPVNMuyneVO9f/pagf8gKb6BVfKuvyAkGhNV0vfr7Ig5skohDXATlzGQablUk1vZqBIpJHys7RcJNjDosDHAFJS6bnOokwz0A0xsmZfAU3lJeHOeuL0ctng1q1Ed7LOwonR0g0SAfXlMUZno1MXWjsUrSLLjVwSKaz6uOdh5V/XNTbPrT6tsMwRrlFKSkrZZhwsK1sfRb4fhqHvR9FqOt0J0oQlVty6ZFfXmg08izIta4RWfdhNJvMgoHs9Ez2sXjUO5pPExTqz6JSzAa4m6hX5CBV8zskCerLx1DkRZGaRpkFZ6PKKvMUg06jhut7n0UwcZN5+x+m092NZvBLXlAB2TIUtVxcxEoam6u8TGnHKMjSIlbpkDXq/zOxBGLvA8j1hx1QEdDWxlHMcMMqXIYT8osqZFvr1pENyrQ0U9c1GYTCRDi5OhjMTLVqIsWWvgAA9ImLHvcsV1mWwHZoVW8qaq1BR095kICnqlD+y685FxF4oyU9a8Yz79GGgTgJYaIHpNMciVzCIpAovfnLRWhlYimm+j3Z+GHvujzKBeqo0aU5KsXEjv+SsDmB6n8/d9doAiMIK6ELNNY3SPEmSSawlopiTSjYhA6ud4uescN0trnj5pM+GPpuKbsEJolUn2kynKPeIW1+FV95E9eZzEeLX3AbAqmBzLJIrrVRDpuVQ000KeEoZbE+kHpG+J1LVrO+yplPVwqnXBBcA6aPXe4dbKjZHNy7uAZuQdzsEebh5693x+Pad7dH+4d2LuAFUPbT3RhoZFSxCUlTjWp+si0vlEG2bg8DilmpfP2kZvf7juI737p3vsa4dHBivoNzt/erP+3/mf33w4Xh8AR0I6vMMcxyoU4ozcPcl6UF9/rMqqUz1orq2kIB5FeqLaOF0PH7rXM/1UccFdE7v67f907luSzBtPl/jKAiyHG3yG1PK1TKgQJ5jirrgPaqTJncfPPiQPNDH1ys8ZE9nLmnvx6Oul7J7fPwJucHj42N/tPtOtfXk6Pj4waf0rr87x10B1PlxZ6bDiVSbcmdLalWVyNZzdMAV9IHWN8gD/R62P6NP9/kLPhPBFz2C/qag7ylXAaPRPtn8yznuSrGilsTsd4pervTusCmmmgHb4cdd89x9yrs+u1fldPRX8sffXvChKiP0ZZ/ykJx+Jjml0n2u7kEwb5mpq0HInNzV0KaUP0WjFnz6tNkJpUoFaRpH4/QrldP7W1/fvn39RLoC1Y6Htz++c6ScfX/r+u3bD9muv4PuONxsNicGhiSnv5Ctb5hlun8BCpWW8HQVj8+BH6zkk2ZtoypqdiVjPqhRo4zA9dX7R1NOQbOBzBEwN0fueMItu9xFhfNbxeQY5EVyyl/ANqX1jccn53Q4ukrNALyjK7sWrZyq/CzgPXRl9mmUpSVjVU7pE4/pw+29I/n5B92hGmmQwkfqrmdn5FSe/N2DC/GKabl9Z04TAiM1eVK0UKrnApaN9RQaaBa3U07fO6kc8YO3FbH8iG6GIE5vVTuuqTtoP6WWe/z4aBv8TH/0dHOLbGx9X3X+3r4PN2Z4ftTe/CygItY5WIyaUtgvp/0roRjkVAFYfWqVqWL9odr4cQR99acRk9c/iDN/5ruoeF/jb8AEhVPe+wGP3+9i4zRoqrUaUjbvWfE0yz59yqr9OxeYMOhTIS93mXz9k/x1sl2B2pLqNe19ArQJTnffFhJ7DeT0jJyO7v+i3vu8pK4hUDI34Ckr5fF77f6C7evIYJvs/q/HIDTc9mrKk8ngKBzd2N4cXOecPhpzJiuqHn5HdaKB0/3rHzCnV+H0xnb1Xm7eEvf40czGqbDq0XyZ8E+loLb6p0pkPxUjBmal0uGf/iDJa8ashOvdzbvib8Ip9dR/06/fzum+fF2CU/LW4Lcfby5IUHsGmCe8n6u8tzhTateXNsw1XXbmOo1XyTkFi8MebK/5kCw8f/KdxulY94XbOf1WCqeU038pwcVTrZO8KFi8b5CoSInd5YBH2KzjwfUwqnPe1LwR748UXwpI+4l2ZiD4mdqOuq53b0h9Cn3/LXYY3KF2Tv9NT6Wbn/Gzab8QUfC1i+B0VLodpK7B1wIO5e5lvfer60wkMpdlUCqQQqknGaR/CioV4m4aUP0MLfaJwFKpJIIl7f47snl1Ln0B7dz8wM9lb+aZuBsndf8i+r6Y7NQ6ygyMgY+qRu9pLX+qvJGADQmUTY3JACO0Db5pb6RePU2AVPaKbILQPr/HjPM96Vw9FUJHCRx/Q9p8yai8JtjbVm4BXVv4WqBHQXXcofK9+4V8g+cBGzpBLQvvUAtVWXRI7qke+lKpSEVq4MrSpytQGy2KOmO3czSnYO9kC9TkCQnQ98Dpf775vOZi/bRiJN/ZsDzyyWHI4gKOXyVRzzdbH/5Hvc1H7OSvx1I4H7Hz3jvZHArOz4sVWwO2OdIMuXqfuaRa/O7npLwEkcLJXA1VeJqfr9dVT6PMuITr8U0t877PtkmH/koeeh6NagSOqXHa+0T+yeyNaKWl7vb+q5zIvFNwbyU05f3CWLFBvsZCZh636GFLYBQGs0VR5Kkmb74srRCDWQpSxN3dmuta45RLJxWyp/wIVZ6Cl2cQD4DBf5M1ecIZ2ftU55hhV3j3vwnu/jf+LeTnj7+5qIGwUCy4p42BBrKQBBRo95ISBBNF8zbyzgGvHsKNMZXdbQFgG7aP4ejNrYODExmJH9062KJq8ubhwSHbvfeganP3WLnkzc3BwWEzK7J3VDU8/F5pebx9jzj9W63Nz4GZx3XjRMrqQjH3SZdvJADzJNkpJdccALGKLxrKOrNyAVPMyqX0QpKst1KSIFGXQKCuL0t6reZIRGStq9BdSYS5CCkxKomwBtp880nDTDUR6xqCTgeq/vLTQpQDtFjCq4yp+uROOZ1okum3xT46IOryhBjOYYG6QlZKIjy74kU9DSwT6ctDX1VSR3FvopmmTZUzVjJKZZfMzzt+dhmxU9TK+Yv5kvNAlaVrzjWxHCD8EWZxnmhXwtq6yIPCauaqgSdC2POKWbyzCqeQGTD1fsisuEGUpfPG3D9RKDxUBAusx/OITjNj28l0Ffm6Vgz9aDqd8IJLXJ8hhXAy4Jk8HH66MM/Lw9jTaCOMe7g+SU3B3E7kA8B80xedbApcw3zT/uhrKIBk/rwgM3HPPI+Xzt8tZsHczjVXIRaUjpbrPCFrILi93MJHkTAiMympArXLS6kIlcCSICKLTOSFIyJYtwIiM3tdFzPdW3FZxsFU/ZKE6/TVZAwIplU3oEIarYM0jeN4Xf2XBsslUNpSwUulvTugHQ6M6/ZA0Z4eToHubeSfR5DVtgtNMBjXl/KBP3X4KjAv2hXbddAkzOugZfXRawjr3dby9aVdr08CtGbrIRidF4UpodOiDThW1vALdK4rycr2ptpf7fkRu6asRPf6p46yvlypS20d/QWug0H3Or0RX/qYf+nIvKJ0YtYhQ0PPWrBLmKpbsEG9jm/uEdfLrjBF0beWPIw8IVYy3eGA0tpdw4y2gaH3mwczJcPauvIpA+XUBlIEQa+vLqv6O10ly6lAP6eidLfbUyps3+c4xTdkVqz3d38ZLrE2iqPv2xykGpDJqdu5uElHPDY0gH/aMXacSRvV+e1ymkAd9pApR9/3yfhHTVk5sNHw0zWq7Lc5KMLumJJ5UngOhevmjxwu++R9SOhK0LMVTRwvHoVsTprpY5xQYP3yfualAqwE0XooYMNPHlWTrBDAsKAKfTX2mweAQFsAUUEo1kxjWpLVWCKnpfGKTbKwIGisDMcgK/KFkuRf5faarWHdH1vXw1C0ZZozXkyp+U8ZKzdDqKZVo/55/INC0JwVIQspsU6eX3CqEy1QhfdivVMBEL0Jj6X8WBT84qThHM0xr+pz1uIgS7O8sl/8+oN9GtLNg2yZlonHC/3aK/JXgnHkJfMgy4ISNK9nB6MU8IJSV6soNS6zG8vZAPQLM+xs60hpUBY0EzJYmJOlYdmsQbUGqoawwDVGJ90j9dGs9rUZbGtPG4j5ev1k7dhk3R+3h3GleHntnzusuVCnRjBxXFJRmqen9dxXKT0Fo0U6tLlQZ4B/dm78yPJpYWFhYWFhYWFhYWFhYWFhYWFhYWFhYWFhYWFhYWFhYWFhYWFhYWFhYWEx+j/JR+kxVoxInwAAAABJRU5ErkJggg==;" parent="1" vertex="1">
          <mxGeometry x="28" y="151" width="202" height="89" as="geometry"/>
        </mxCell>
        <mxCell id="fre4_qvxFho-2-rtzuF5-2" value="&lt;div align=&quot;left&quot;&gt;- 154 Million Users&lt;/div&gt;&lt;div&gt;- Several types of devices&lt;br&gt;&lt;/div&gt;" style="text;html=1;strokeColor=none;fillColor=none;align=left;verticalAlign=middle;whiteSpace=wrap;rounded=0;" parent="1" vertex="1">
          <mxGeometry x="60" y="470" width="150" height="20" as="geometry"/>
        </mxCell>
        <mxCell id="fre4_qvxFho-2-rtzuF5-3" value="&lt;div align=&quot;left&quot;&gt;Hybrid Cloud Architecture&lt;/div&gt;" style="text;html=1;strokeColor=none;fillColor=none;align=left;verticalAlign=middle;whiteSpace=wrap;rounded=0;" parent="1" vertex="1">
          <mxGeometry x="255" y="133" width="160" height="20" as="geometry"/>
        </mxCell>
        <mxCell id="fre4_qvxFho-2-rtzuF5-5" value="&lt;h1&gt;Design metrics:&lt;/h1&gt;&lt;p&gt;- Latency&lt;/p&gt;&lt;p&gt;- Bandwidth&lt;br&gt;&lt;/p&gt;" style="text;html=1;strokeColor=none;fillColor=none;spacing=5;spacingTop=-20;whiteSpace=wrap;overflow=hidden;rounded=0;" parent="1" vertex="1">
          <mxGeometry x="470" y="630" width="190" height="120" as="geometry"/>
        </mxCell>
        <mxCell id="fre4_qvxFho-2-rtzuF5-6" value="Edge server/Main server" style="text;html=1;strokeColor=none;fillColor=none;align=center;verticalAlign=middle;whiteSpace=wrap;rounded=0;" parent="1" vertex="1">
          <mxGeometry x="420" y="790" width="190" height="20" as="geometry"/>
        </mxCell>
        <mxCell id="fre4_qvxFho-2-rtzuF5-11" style="edgeStyle=orthogonalEdgeStyle;rounded=0;orthogonalLoop=1;jettySize=auto;html=1;exitX=1;exitY=0.5;exitDx=0;exitDy=0;entryX=0;entryY=0.5;entryDx=0;entryDy=0;" parent="1" source="fre4_qvxFho-2-rtzuF5-8" target="fre4_qvxFho-2-rtzuF5-9" edge="1">
          <mxGeometry relative="1" as="geometry"/>
        </mxCell>
        <mxCell id="fre4_qvxFho-2-rtzuF5-8" value="New video" style="shape=process;whiteSpace=wrap;html=1;backgroundOutline=1;" parent="1" vertex="1">
          <mxGeometry x="1256" y="980" width="120" height="60" as="geometry"/>
        </mxCell>
        <mxCell id="fre4_qvxFho-2-rtzuF5-12" style="edgeStyle=orthogonalEdgeStyle;rounded=0;orthogonalLoop=1;jettySize=auto;html=1;exitX=1;exitY=0.5;exitDx=0;exitDy=0;entryX=0;entryY=0.5;entryDx=0;entryDy=0;" parent="1" source="fre4_qvxFho-2-rtzuF5-9" target="fre4_qvxFho-2-rtzuF5-10" edge="1">
          <mxGeometry relative="1" as="geometry"/>
        </mxCell>
        <mxCell id="fre4_qvxFho-2-rtzuF5-9" value="Transcoding" style="rounded=0;whiteSpace=wrap;html=1;" parent="1" vertex="1">
          <mxGeometry x="1395" y="980" width="120" height="60" as="geometry"/>
        </mxCell>
        <mxCell id="fre4_qvxFho-2-rtzuF5-10" value="Different formats (Multiple copies)" style="rounded=0;whiteSpace=wrap;html=1;" parent="1" vertex="1">
          <mxGeometry x="1560" y="960" width="80" height="100" as="geometry"/>
        </mxCell>
        <mxCell id="fre4_qvxFho-2-rtzuF5-17" value="&lt;div&gt;MP4/1080p&lt;/div&gt;&lt;div&gt;MP4/720p&lt;/div&gt;&lt;div&gt;...&lt;br&gt;&lt;/div&gt;&lt;div&gt;MP4/144p&lt;/div&gt;&lt;div&gt;M4V/144p&lt;br&gt;&lt;/div&gt;" style="rounded=0;whiteSpace=wrap;html=1;" parent="1" vertex="1">
          <mxGeometry x="340" y="890" width="100" height="120" as="geometry"/>
        </mxCell>
        <mxCell id="fre4_qvxFho-2-rtzuF5-18" value="&lt;h1&gt;S3 finds the most appropriate Open Connect server&lt;br&gt;&lt;/h1&gt;&lt;p&gt;Depending on the device and available bandwidth, the Amazon S3 will find the most appropriate Open Connect server to provide the video.&lt;br&gt;&lt;/p&gt;" style="text;html=1;strokeColor=none;fillColor=none;spacing=5;spacingTop=-20;whiteSpace=wrap;overflow=hidden;rounded=0;" parent="1" vertex="1">
          <mxGeometry x="453" y="890" width="377" height="120" as="geometry"/>
        </mxCell>
        <mxCell id="fre4_qvxFho-2-rtzuF5-19" style="edgeStyle=orthogonalEdgeStyle;rounded=0;orthogonalLoop=1;jettySize=auto;html=1;exitX=1;exitY=0.5;exitDx=0;exitDy=0;entryX=0;entryY=0.5;entryDx=0;entryDy=0;" parent="1" source="MvTisL7LCWPT0r3H7F93-45" target="MvTisL7LCWPT0r3H7F93-53" edge="1">
          <mxGeometry relative="1" as="geometry">
            <Array as="points">
              <mxPoint x="910" y="403"/>
            </Array>
          </mxGeometry>
        </mxCell>
        <mxCell id="fre4_qvxFho-2-rtzuF5-20" value="&lt;h1&gt;Gateway advantages&lt;br&gt;&lt;/h1&gt;&lt;p&gt;1/ SHARD TRAFFIC&lt;/p&gt;&lt;p&gt;2/ LOAD TEST&lt;/p&gt;&lt;p&gt;3/ TEST NEW SERVICE&lt;/p&gt;&lt;p&gt;4/ FILTER BAD REQUEST&lt;br&gt;&lt;/p&gt;" style="text;html=1;strokeColor=none;fillColor=none;spacing=5;spacingTop=-20;whiteSpace=wrap;overflow=hidden;rounded=0;" parent="1" vertex="1">
          <mxGeometry x="632" y="490" width="275" height="230" as="geometry"/>
        </mxCell>
        <mxCell id="fre4_qvxFho-2-rtzuF5-21" value="&lt;h1&gt;Hystrix&lt;/h1&gt;&lt;p&gt;Latency and fault tolerant labory design for safe access to micro services. &lt;br&gt;&lt;/p&gt;&lt;div&gt;&lt;br&gt;&lt;/div&gt;&lt;div&gt;- Timingout calls &amp;gt; time&lt;/div&gt;&lt;div&gt;- Reject Req when thread pool is full&lt;/div&gt;&lt;div&gt;- Disconnect the service if errors&lt;/div&gt;&lt;div&gt;- Fall back to default response&lt;/div&gt;&lt;div&gt;- Metrics&lt;br&gt;&lt;/div&gt;" style="text;html=1;strokeColor=none;fillColor=none;spacing=5;spacingTop=-20;whiteSpace=wrap;overflow=hidden;rounded=0;" parent="1" vertex="1">
          <mxGeometry x="907" y="580" width="304" height="190" as="geometry"/>
        </mxCell>
        <mxCell id="keFQ2sjxMwxsZzKYrWvT-2" value="&lt;h1&gt;EV Cache&lt;/h1&gt;&lt;div&gt;- Throughput&lt;/div&gt;&lt;div&gt;- Latency&lt;/div&gt;&lt;div&gt;- Cost&lt;br&gt;&lt;/div&gt;" style="text;html=1;strokeColor=none;fillColor=none;spacing=5;spacingTop=-20;whiteSpace=wrap;overflow=hidden;rounded=0;" vertex="1" parent="1">
          <mxGeometry x="910" y="790.5" width="304" height="100" as="geometry"/>
        </mxCell>
        <mxCell id="keFQ2sjxMwxsZzKYrWvT-3" value="&lt;h1&gt;Database&lt;/h1&gt;&lt;p&gt;Compress the old data and put it into a separate Cassandra node. &lt;br&gt;&lt;/p&gt;" style="text;html=1;strokeColor=none;fillColor=none;spacing=5;spacingTop=-20;whiteSpace=wrap;overflow=hidden;rounded=0;" vertex="1" parent="1">
          <mxGeometry x="1205" y="1070" width="190" height="90" as="geometry"/>
        </mxCell>
        <mxCell id="keFQ2sjxMwxsZzKYrWvT-4" value="&lt;h1&gt;Kafka and Chuwka&lt;br&gt;&lt;/h1&gt;&lt;p&gt;500 B events&lt;/p&gt;&lt;p&gt;13 PB Everyday&lt;/p&gt;&lt;p&gt;- Video monitoring&lt;/p&gt;" style="text;html=1;strokeColor=none;fillColor=none;spacing=5;spacingTop=-20;whiteSpace=wrap;overflow=hidden;rounded=0;" vertex="1" parent="1">
          <mxGeometry x="1200" y="1170" width="190" height="170" as="geometry"/>
        </mxCell>
        <mxCell id="keFQ2sjxMwxsZzKYrWvT-5" value="&lt;h1&gt;Message Router&lt;br&gt;&lt;/h1&gt;&lt;p&gt;Apache Samza&lt;br&gt;&lt;/p&gt;" style="text;html=1;strokeColor=none;fillColor=none;spacing=5;spacingTop=-20;whiteSpace=wrap;overflow=hidden;rounded=0;" vertex="1" parent="1">
          <mxGeometry x="1410" y="1070" width="190" height="120" as="geometry"/>
        </mxCell>
      </root>
    </mxGraphModel>
  </diagram>
</mxfile>
